<svg width="57" height="65" viewBox="0 0 57 65" fill="none" xmlns="http://www.w3.org/2000/svg">
<path d="M25.9829 20.6373L38.4773 31.7432C38.8703 32.0771 39.1842 32.499 39.395 32.9767C39.6059 33.4543 39.7081 33.9752 39.694 34.4998C39.6899 35.0213 39.5794 35.5362 39.3698 36.011C39.1603 36.4859 38.8562 36.9101 38.4773 37.2563L25.9829 48.3622C25.9189 48.4256 25.842 48.4734 25.7578 48.5022C25.6736 48.531 25.5842 48.5401 25.4962 48.5288C25.3895 48.5319 25.2834 48.5111 25.1853 48.4679C25.0872 48.4246 24.9994 48.3599 24.9279 48.2782C24.8022 48.1058 24.7412 47.8924 24.7562 47.6773C24.7712 47.4622 24.8612 47.26 25.0095 47.1078L37.504 36.0019C37.7052 35.8094 37.8663 35.577 37.9778 35.3185C38.0892 35.0601 38.1487 34.7811 38.1524 34.4983C38.1569 34.2142 38.1011 33.9326 37.9892 33.6729C37.8772 33.4133 37.7116 33.1819 37.504 32.9948L25.0095 21.8888C24.8601 21.7373 24.7694 21.5349 24.7544 21.3195C24.7394 21.1041 24.8011 20.8904 24.9279 20.7184C25.0586 20.5658 25.2419 20.4716 25.4388 20.4559C25.6358 20.4403 25.831 20.5043 25.9829 20.6344" fill="black"/>
<path d="M25.9841 15.7917L39.4519 27.6566C39.6013 27.8081 39.692 28.0105 39.707 28.2259C39.722 28.4413 39.6603 28.655 39.5335 28.827C39.3799 28.9788 39.1779 29.0679 38.9652 29.0776C38.7924 29.0582 38.626 28.9988 38.4786 28.9039L25.0107 16.9564C24.8614 16.8049 24.7707 16.6025 24.7556 16.3871C24.7406 16.1717 24.8023 15.958 24.9292 15.786C25.0705 15.6449 25.2597 15.5659 25.4566 15.5659C25.6535 15.5659 25.8427 15.6449 25.9841 15.786" fill="black"/>
<path d="M34.5839 33.6724C34.7452 33.5284 34.9555 33.4562 35.1685 33.4718C35.3815 33.4874 35.5798 33.5896 35.7197 33.7557C35.8596 33.9219 35.9296 34.1385 35.9145 34.3578C35.8993 34.5772 35.8001 34.7813 35.6388 34.9254L25.9842 43.4471C25.9202 43.5104 25.8433 43.5582 25.7591 43.587C25.6749 43.6159 25.5855 43.625 25.4975 43.6137C25.3908 43.6168 25.2847 43.596 25.1866 43.5527C25.0885 43.5094 25.0007 43.4447 24.9292 43.3631C24.8035 43.1906 24.7425 42.9772 24.7575 42.7622C24.7725 42.5471 24.8625 42.3448 25.0108 42.1927L34.5839 33.6724Z" fill="black"/>
<path d="M31.8241 31.2491C31.904 31.1777 31.9967 31.1233 32.0971 31.0889C32.1974 31.0545 32.3033 31.0407 32.4088 31.0485C32.5142 31.0562 32.6172 31.0853 32.7117 31.134C32.8063 31.1827 32.8906 31.2501 32.9599 31.3324C33.0292 31.4146 33.082 31.5102 33.1155 31.6135C33.1489 31.7168 33.1622 31.8259 33.1547 31.9345C33.1472 32.0431 33.119 32.1491 33.0717 32.2465C33.0244 32.3439 32.9589 32.4307 32.879 32.5021L26.0642 38.6018C26.0003 38.6651 25.9234 38.7129 25.8392 38.7417C25.755 38.7706 25.6656 38.7797 25.5776 38.7684C25.4709 38.7715 25.3648 38.7507 25.2667 38.7074C25.1686 38.6641 25.0808 38.5994 25.0093 38.5178C24.886 38.3454 24.8268 38.1332 24.8426 37.9198C24.8583 37.7063 24.9479 37.5057 25.095 37.3545L31.8241 31.2491Z" fill="black"/>
<circle cx="28.5" cy="31.5" r="28" stroke="black"/>
</svg>
