<svg width="57" height="65" viewBox="0 0 57 65" fill="none" xmlns="http://www.w3.org/2000/svg">
<path d="M32.0171 20.6373L19.5227 31.7432C19.1297 32.0771 18.8158 32.499 18.605 32.9767C18.3941 33.4543 18.2919 33.9752 18.306 34.4998C18.3101 35.0213 18.4206 35.5362 18.6302 36.011C18.8397 36.4859 19.1438 36.9101 19.5227 37.2563L32.0171 48.3622C32.0811 48.4256 32.158 48.4734 32.2422 48.5022C32.3264 48.531 32.4158 48.5401 32.5038 48.5288C32.6105 48.5319 32.7166 48.5111 32.8147 48.4679C32.9128 48.4246 33.0006 48.3599 33.0721 48.2782C33.1978 48.1058 33.2588 47.8924 33.2438 47.6773C33.2288 47.4622 33.1388 47.26 32.9905 47.1078L20.496 36.0019C20.2948 35.8094 20.1337 35.577 20.0222 35.3185C19.9108 35.0601 19.8513 34.7811 19.8476 34.4983C19.8431 34.2142 19.8989 33.9326 20.0108 33.6729C20.1228 33.4133 20.2884 33.1819 20.496 32.9948L32.9905 21.8888C33.1399 21.7373 33.2306 21.5349 33.2456 21.3195C33.2606 21.1041 33.1989 20.8904 33.0721 20.7184C32.9414 20.5658 32.7581 20.4716 32.5612 20.4559C32.3642 20.4403 32.169 20.5043 32.0171 20.6344" fill="black"/>
<path d="M32.0159 15.7917L18.5481 27.6566C18.3987 27.8081 18.308 28.0105 18.293 28.2259C18.278 28.4413 18.3397 28.655 18.4665 28.827C18.6201 28.9788 18.8221 29.0679 19.0348 29.0776C19.2076 29.0582 19.374 28.9988 19.5214 28.9039L32.9893 16.9564C33.1386 16.8049 33.2293 16.6025 33.2444 16.3871C33.2594 16.1717 33.1977 15.958 33.0708 15.786C32.9295 15.6449 32.7403 15.5659 32.5434 15.5659C32.3465 15.5659 32.1573 15.6449 32.0159 15.786" fill="black"/>
<path d="M23.4161 33.6724C23.2548 33.5284 23.0445 33.4562 22.8315 33.4718C22.6185 33.4874 22.4202 33.5896 22.2803 33.7557C22.1404 33.9219 22.0704 34.1385 22.0855 34.3578C22.1007 34.5772 22.1999 34.7813 22.3612 34.9254L32.0158 43.4471C32.0798 43.5104 32.1567 43.5582 32.2409 43.587C32.3251 43.6159 32.4145 43.625 32.5025 43.6137C32.6092 43.6168 32.7153 43.596 32.8134 43.5527C32.9115 43.5094 32.9993 43.4447 33.0708 43.3631C33.1965 43.1906 33.2575 42.9772 33.2425 42.7622C33.2275 42.5471 33.1375 42.3448 32.9892 42.1927L23.4161 33.6724Z" fill="black"/>
<path d="M26.1759 31.2491C26.096 31.1777 26.0033 31.1233 25.9029 31.0889C25.8026 31.0545 25.6967 31.0407 25.5912 31.0485C25.4858 31.0562 25.3828 31.0853 25.2883 31.134C25.1937 31.1827 25.1094 31.2501 25.0401 31.3324C24.9708 31.4146 24.918 31.5102 24.8845 31.6135C24.8511 31.7168 24.8378 31.8259 24.8453 31.9345C24.8528 32.0431 24.881 32.1491 24.9283 32.2465C24.9756 32.3439 25.0411 32.4307 25.121 32.5021L31.9358 38.6018C31.9997 38.6651 32.0766 38.7129 32.1608 38.7417C32.245 38.7706 32.3344 38.7797 32.4224 38.7684C32.5291 38.7715 32.6352 38.7507 32.7333 38.7074C32.8314 38.6641 32.9192 38.5994 32.9907 38.5178C33.114 38.3454 33.1732 38.1332 33.1574 37.9198C33.1417 37.7063 33.0521 37.5057 32.905 37.3545L26.1759 31.2491Z" fill="black"/>
<circle cx="28.5" cy="31.5" r="28" stroke="black"/>
</svg>
