<svg width="55" height="55" viewBox="0 0 55 55" fill="none" xmlns="http://www.w3.org/2000/svg">
<path d="M27.4999 32.0833C20.5516 32.0833 14.8958 26.4298 14.8958 19.4792C14.8958 12.5285 20.5516 6.875 27.4999 6.875C34.4483 6.875 40.1041 12.5285 40.1041 19.4792C40.1041 26.4298 34.4483 32.0833 27.4999 32.0833ZM27.4999 9.16667C21.8143 9.16667 17.1874 13.7935 17.1874 19.4792C17.1874 25.1648 21.8143 29.7917 27.4999 29.7917C33.1855 29.7917 37.8124 25.1648 37.8124 19.4792C37.8124 13.7935 33.1855 9.16667 27.4999 9.16667Z" fill="black"/>
<path d="M27.4999 32.0833C20.5516 32.0833 14.8958 26.4298 14.8958 19.4792C14.8958 12.5285 20.5516 6.875 27.4999 6.875C34.4483 6.875 40.1041 12.5285 40.1041 19.4792C40.1041 26.4298 34.4483 32.0833 27.4999 32.0833ZM27.4999 9.16667C21.8143 9.16667 17.1874 13.7935 17.1874 19.4792C17.1874 25.1648 21.8143 29.7917 27.4999 29.7917C33.1855 29.7917 37.8124 25.1648 37.8124 19.4792C37.8124 13.7935 33.1855 9.16667 27.4999 9.16667Z" fill="black"/>
<path d="M27.4999 55C27.2341 55 26.966 54.906 26.7505 54.7204C25.9851 54.0604 8.02075 38.3121 8.02075 19.4792C8.02075 8.73813 16.7589 0 27.4999 0C38.241 0 46.9791 8.73813 46.9791 19.4792C46.9791 38.3121 29.0147 54.0604 28.2493 54.7204C28.0339 54.906 27.7658 55 27.4999 55ZM27.4999 2.29167C18.0216 2.29167 10.3124 10.0008 10.3124 19.4792C10.3124 35.1588 24.0991 49.1013 27.4999 52.3004C30.8985 49.099 44.6874 35.1404 44.6874 19.4792C44.6874 10.0008 36.9783 2.29167 27.4999 2.29167Z" fill="black"/>
</svg>
