<svg width="746" height="476" viewBox="0 0 746 476" fill="none" xmlns="http://www.w3.org/2000/svg">
<path d="M687.661 22.269C685.13 22.269 683.037 20.2134 683 17.6873C682.958 15.1199 685.018 12.9983 687.59 12.957H687.665C690.196 12.957 692.289 15.0126 692.326 17.5387C692.347 18.7811 691.879 19.9575 691.011 20.8532C690.142 21.7448 688.98 22.2484 687.735 22.269H687.661Z" fill="white"/>
<path d="M687.665 13.576C689.861 13.576 691.672 15.3591 691.705 17.5509C691.743 19.7757 689.956 21.6166 687.727 21.6496H687.661C685.464 21.6496 683.653 19.8665 683.62 17.6788C683.583 15.454 685.369 13.6131 687.599 13.5801H687.665M687.665 12.3418C687.636 12.3418 687.607 12.3418 687.578 12.3418C684.658 12.3872 682.33 14.7854 682.375 17.6995C682.421 20.5847 684.778 22.8921 687.656 22.8921C687.685 22.8921 687.714 22.8921 687.743 22.8921C690.663 22.8467 692.992 20.4485 692.946 17.5344C692.901 14.6492 690.543 12.3418 687.665 12.3418Z" fill="#170C2C"/>
<path d="M737.96 453.83C735.429 453.83 733.336 451.775 733.299 449.249C733.278 448.006 733.746 446.83 734.614 445.934C735.483 445.043 736.645 444.539 737.89 444.519H737.964C740.495 444.519 742.588 446.574 742.625 449.1C742.646 450.343 742.179 451.519 741.31 452.415C740.442 453.31 739.279 453.81 738.035 453.83H737.96Z" fill="white"/>
<path d="M737.964 445.138C740.16 445.138 741.972 446.921 742.005 449.112C742.021 450.19 741.616 451.209 740.868 451.985C740.115 452.761 739.106 453.195 738.026 453.211H737.96C735.764 453.211 733.952 451.428 733.919 449.24C733.882 447.016 735.669 445.175 737.898 445.142H737.964M737.964 443.903C737.935 443.903 737.906 443.903 737.877 443.903C734.957 443.949 732.629 446.347 732.674 449.261C732.72 452.146 735.077 454.454 737.956 454.454C737.985 454.454 738.014 454.454 738.043 454.454C740.963 454.408 743.291 452.01 743.246 449.096C743.2 446.211 740.843 443.903 737.964 443.903Z" fill="#170C2C"/>
<path d="M426.473 415.423C423.942 415.423 421.849 413.367 421.812 410.841C421.771 408.274 423.831 406.152 426.403 406.111H426.477C429.009 406.111 431.101 408.166 431.138 410.693C431.159 411.935 430.692 413.111 429.823 414.007C428.955 414.899 427.793 415.402 426.548 415.423H426.473Z" fill="white"/>
<path d="M426.477 406.73C428.673 406.73 430.485 408.513 430.518 410.705C430.535 411.782 430.129 412.802 429.381 413.578C428.628 414.354 427.619 414.787 426.539 414.803H426.473C424.277 414.803 422.466 413.02 422.433 410.833C422.395 408.608 424.182 406.767 426.411 406.734H426.477M426.477 405.496C426.448 405.496 426.419 405.496 426.39 405.496C423.471 405.541 421.142 407.939 421.188 410.853C421.233 413.739 423.591 416.046 426.469 416.046C426.498 416.046 426.527 416.046 426.556 416.046C429.476 416 431.804 413.602 431.759 410.688C431.713 407.803 429.356 405.496 426.477 405.496Z" fill="#170C2C"/>
<path d="M12.5099 131.631C12.0054 131.631 11.5008 131.548 11.0169 131.383C8.58094 130.561 7.26576 127.916 8.08878 125.48C8.72983 123.586 10.5041 122.314 12.5099 122.314C13.0145 122.314 13.5191 122.397 14.003 122.562C15.1817 122.958 16.137 123.792 16.6912 124.907C17.2454 126.021 17.3281 127.284 16.9311 128.461C16.29 130.355 14.5158 131.626 12.5099 131.626V131.631Z" fill="white"/>
<path d="M12.5099 122.934C12.9483 122.934 13.3825 123.004 13.8044 123.148C15.9178 123.862 17.0551 126.157 16.3438 128.267C15.7896 129.909 14.2469 131.011 12.514 131.011C12.0756 131.011 11.6414 130.941 11.2195 130.797C10.198 130.45 9.36669 129.728 8.89107 128.762C8.41132 127.796 8.33688 126.702 8.68428 125.678C9.23848 124.036 10.7811 122.934 12.514 122.934M12.514 121.695C10.3096 121.695 8.25003 123.082 7.50558 125.282C6.5709 128.044 8.05564 131.036 10.8225 131.969C11.385 132.159 11.9557 132.25 12.514 132.25C14.7184 132.25 16.778 130.863 17.5225 128.663C18.4571 125.901 16.9724 122.909 14.2056 121.976C13.6431 121.786 13.0724 121.695 12.514 121.695Z" fill="#170C2C"/>
<path d="M259.622 464.633L253.445 468.948L257.769 475.113L263.946 470.798L259.622 464.633Z" fill="white"/>
<path d="M259.454 465.524L263.064 470.671L257.907 474.275L254.296 469.128L259.454 465.524ZM259.76 463.799L252.568 468.822L257.601 476L264.793 470.977L259.76 463.799Z" fill="#170C2C"/>
<path d="M587.154 126.975L580.977 131.29L585.301 137.455L591.477 133.14L587.154 126.975Z" fill="white"/>
<path d="M587.012 127.874L590.623 133.021L585.465 136.625L581.855 131.478L587.012 127.874ZM587.318 126.149L580.126 131.172L585.159 138.35L592.351 133.327L587.318 126.149Z" fill="#170C2C"/>
<path d="M76.3749 331.724L70.1981 336.039L74.5215 342.204L80.6983 337.889L76.3749 331.724Z" fill="white"/>
<path d="M76.2093 332.601L79.8199 337.749L74.6625 341.352L71.052 336.205L76.2093 332.601ZM76.5154 330.876L69.3232 335.899L74.3565 343.077L81.5486 338.054L76.5154 330.876Z" fill="#170C2C"/>
<path d="M302.657 0.865229L296.858 5.6748L301.677 11.4618L307.476 6.65221L302.657 0.865229Z" fill="white"/>
<path d="M302.582 1.74187L306.606 6.57534L301.763 10.5915L297.739 5.75806L302.582 1.74187ZM302.743 0L295.993 5.60121L301.606 12.3375L308.355 6.73632L302.743 0Z" fill="#170C2C"/>
<path d="M225.49 119.017L241.12 114.839" stroke="#170C2C" stroke-width="3" stroke-miterlimit="10"/>
<path d="M13.4446 460.026L1 470.345" stroke="#170C2C" stroke-width="3" stroke-miterlimit="10"/>
<path d="M499.391 23.5273L510.248 35.5016" stroke="#170C2C" stroke-width="3" stroke-miterlimit="10"/>
<path d="M666.241 310.552L672.855 325.292" stroke="#170C2C" stroke-width="3" stroke-miterlimit="10"/>
<path d="M745.347 97.8789L730.582 104.479" stroke="#170C2C" stroke-width="3" stroke-miterlimit="10"/>
<path d="M594.465 473.061L598.042 457.31" stroke="#170C2C" stroke-width="3" stroke-miterlimit="10"/>
<path d="M68.3016 25.0836L60.1045 12.3374" stroke="#170C2C" stroke-width="3" stroke-miterlimit="10"/>
<path d="M410.186 139.151C410.89 161.618 393.213 180.399 370.702 181.101C348.191 181.802 329.373 164.161 328.67 141.694" fill="#FFC200"/>
<path d="M549.74 368.351L507.212 403.671L368.15 255.951L228.94 403.981L186.883 368.136L326.333 216.858C336.917 205.387 351.764 198.767 367.389 198.56C383.544 198.346 399.028 204.999 409.971 216.858L549.745 368.355L549.74 368.351Z" fill="#0083C8"/>
<path d="M250.074 382.142C251.347 377.42 252.092 372.611 251.389 367.732C250.611 362.329 248.419 357.33 246.368 352.319C244.122 346.83 242.447 341.266 243.63 335.301C244.664 330.096 247.265 324.689 251.207 321.048C253.084 319.319 255.405 317.998 257.998 317.804C260.781 317.594 263.523 318.539 266.311 318.188C270.55 317.655 272.63 314.155 273.705 310.37C274.959 305.954 275.484 301.302 278.896 297.863C283.317 293.401 289.339 295.923 292.101 300.872C297.234 310.061 295.48 321.655 296.27 331.698C296.324 332.362 297.408 332.626 297.528 331.867C298.251 327.289 298.111 322.485 297.875 317.87C297.623 312.95 297.077 308.013 295.447 303.333C293.818 298.652 290.513 294.049 285.265 293.41C280.844 292.869 277.233 295.804 275.112 299.42C272.676 303.576 272.75 308.484 270.595 312.686C267.485 318.745 260.223 314.494 255.057 316.26C250.301 317.887 246.901 322.134 244.68 326.46C242.108 331.467 240.735 337.121 241.533 342.743C242.513 349.674 246.347 355.799 248.44 362.403C250.529 368.991 250.367 375.141 249.122 381.877C249.007 382.493 249.908 382.761 250.078 382.142H250.074Z" fill="white"/>
<path d="M260.992 370.522C260.719 363.154 261.542 355.225 263.887 348.216C265.14 344.472 267.928 339.131 272.614 342.12C274.276 343.181 275.025 345.05 275.724 346.813C276.369 348.431 277.072 350.02 277.684 351.655C277.974 352.422 279.074 352.129 278.917 351.316C278.197 347.581 277.527 342.714 274.189 340.328C269.855 337.228 265.43 339.49 263.3 343.833C261.414 347.68 260.665 352.063 260.165 356.282C259.602 361.012 259.396 365.771 259.805 370.522C259.871 371.269 261.017 371.29 260.988 370.522H260.992Z" fill="white"/>
<path d="M215.908 336.894C219.44 339.111 221.719 342.297 223.559 345.971C225.648 350.127 227.207 354.49 227.252 359.192C227.339 368.058 222.757 376.264 216.652 382.43C215.953 383.136 217.025 384.201 217.744 383.52C224.601 376.986 229.448 368.211 229.014 358.511C228.634 350.07 223.911 340.324 216.421 336.019C215.85 335.693 215.354 336.547 215.908 336.894Z" fill="white"/>
<path d="M267.398 281.167C272.527 281.572 277.593 279.982 282.068 277.601C285.282 275.888 288.363 273.915 291.767 272.582C295.385 271.166 299.248 270.324 303.127 270.134C308.822 269.857 313.819 271.352 318.273 274.926C319.621 276.008 320.866 277.217 322.028 278.492C322.483 278.988 323.004 279.863 323.687 280.061C324.133 280.193 324.576 279.97 324.824 279.599C325.258 278.955 324.617 278.067 324.332 277.502C323.74 276.342 322.04 277.361 322.595 278.517C325.577 284.733 323.041 291.346 321.677 297.616C321.54 298.235 322.466 298.718 322.764 298.074C325.705 291.746 327.491 284.065 324.332 277.502L322.595 278.517C323.12 279.541 322.665 279.223 323.091 278.587L324.228 278.125C324.882 278.315 324.237 277.943 323.914 277.584C323.509 277.139 323.108 276.693 322.686 276.259C321.383 274.914 319.973 273.68 318.459 272.569C313.996 269.3 309.017 267.93 303.504 268.153C296.105 268.45 289.748 271.108 283.416 274.736C280.153 276.606 276.886 278.336 273.213 279.252C271.27 279.735 269.28 280.11 267.299 280.416C266.848 280.486 267.001 281.134 267.403 281.167H267.398Z" fill="white"/>
<path d="M287.887 258.832C293.404 260.958 299.637 259.831 304.848 257.441C311.246 254.502 317.098 250.044 321.978 245.005C326.983 239.833 330.999 233.786 334.32 227.425C337.723 220.903 340.995 213.845 342.967 206.741C343.116 206.205 342.331 205.854 342.053 206.357C338.757 212.425 336.429 219.013 333.269 225.159C330.109 231.305 326.304 237.41 321.54 242.602C316.891 247.671 311.354 252.075 305.237 255.249C302.015 256.925 298.462 258.296 294.798 258.469C292.523 258.58 290.253 258.279 287.995 258.036C287.511 257.982 287.498 258.675 287.887 258.824V258.832Z" fill="white"/>
<path d="M418.71 226.521C412.875 234.132 407.924 245.318 412.267 254.713C414.053 258.58 417.184 261.899 421.022 263.79C425.65 266.068 430.849 265.725 435.725 267.083C445.353 269.766 448.442 280.498 448.232 289.414C448.124 293.975 447.508 298.821 449.104 303.209C450.585 307.274 453.922 309.945 458.066 311.022C468.836 313.821 479.386 307.2 485.971 299.205C486.351 298.747 485.756 298.119 485.305 298.54C478.522 304.888 469.667 311.208 459.82 309.458C454.828 308.57 451.292 305.413 450.32 300.406C449.468 296.022 450.287 291.519 450.134 287.098C449.894 280.024 447.574 272.218 441.643 267.835C437.876 265.048 433.301 264.669 428.81 264.029C424.24 263.377 420.183 261.916 416.965 258.485C408.238 249.19 413.421 236.217 419.467 226.971C419.79 226.48 419.037 226.079 418.698 226.521H418.71Z" fill="white"/>
<path d="M461.491 272.862C460.11 275.88 460.093 279.999 459.882 283.276C459.713 285.885 459.076 289.604 460.494 291.981C463.67 297.302 470.896 286.715 472.376 284.263C472.695 283.734 471.959 283.169 471.524 283.606C469.858 285.291 468.245 287.016 466.512 288.634C465.854 289.249 464.87 290.611 464.014 290.9L462.037 290.809C461.892 290.496 461.789 290.169 461.727 289.835C461.594 289.241 461.59 288.634 461.565 288.027C461.474 285.662 461.512 283.272 461.648 280.907C461.793 278.344 462.442 275.595 462.19 273.052C462.157 272.726 461.665 272.491 461.495 272.862H461.491Z" fill="white"/>
<path d="M445.428 338.083C451.089 334.612 456.656 331.025 462.967 328.804C468.712 326.782 475.834 325.605 480.387 330.653C482.414 332.899 483.638 335.734 485.354 338.203C486.773 340.246 488.518 341.992 490.619 343.342C494.941 346.12 500.293 347.028 505.359 346.664C512.038 346.186 518.238 343.519 523.61 339.627C524.4 339.057 523.722 337.815 522.833 338.298C517.254 341.332 511.517 344.2 505.07 344.596C499.548 344.935 493.618 343.684 489.453 339.846C485.288 336.007 484.002 329.919 479.023 326.905C474.043 323.892 468.1 324.998 463.083 326.765C456.677 329.027 449.567 332.494 445.308 337.922C445.241 338.005 445.324 338.149 445.432 338.083H445.428Z" fill="white"/>
<path d="M466.33 360.195C471.719 356.707 478.948 355.976 484.424 359.712C489.068 362.878 491.653 369.069 498.109 368.83C503.899 368.615 508.548 363.588 514.359 363.827C524.049 364.223 516.274 376.239 513.031 379.685C508.093 384.927 501.827 388.667 495.93 392.704C495.313 393.125 495.839 393.992 496.509 393.69C502.903 390.805 508.924 386.801 513.858 381.795C516.145 379.475 518.238 376.85 519.623 373.886C521.009 370.922 522.146 367.261 520.174 364.442C516.22 358.787 508.176 363.142 503.552 365.173C500.21 366.642 496.686 367.558 493.427 365.338C490.495 363.34 488.589 360.178 485.66 358.16C479.808 354.123 470.92 354.441 465.933 359.687C465.689 359.943 466.007 360.393 466.321 360.186L466.33 360.195Z" fill="white"/>
<path d="M534.216 392.64C545.828 382.741 552.765 371.822 549.709 368.251C546.653 364.68 534.762 369.81 523.149 379.709C511.537 389.607 504.6 400.527 507.656 404.098C510.712 407.668 522.603 402.539 534.216 392.64Z" fill="black"/>
<path d="M529.016 379.846L554.674 410.936L608.278 353.425L552.453 383.9L542.205 371.674" fill="#FFC200"/>
<path d="M556.887 387.718L562.516 373.18" stroke="white" stroke-width="4" stroke-miterlimit="10"/>
<path d="M564.319 384.631L569.948 370.089" stroke="white" stroke-width="4" stroke-miterlimit="10"/>
<path d="M572.102 380.866L577.731 366.329" stroke="white" stroke-width="4" stroke-miterlimit="10"/>
<path d="M228.94 404.008C231.995 400.437 225.059 389.518 213.446 379.619C201.833 369.721 189.942 364.591 186.886 368.162C183.83 371.733 190.767 382.652 202.38 392.551C213.992 402.449 225.884 407.579 228.94 404.008Z" fill="black"/>
<path d="M207.587 379.682L181.928 410.767L128.324 353.256L184.153 383.735L194.398 371.505" fill="#FFC200"/>
<path d="M179.72 387.553L174.091 373.011" stroke="white" stroke-width="4" stroke-miterlimit="10"/>
<path d="M171.097 384.461L165.468 369.924" stroke="white" stroke-width="4" stroke-miterlimit="10"/>
<path d="M162.473 378.146L156.845 363.604" stroke="white" stroke-width="4" stroke-miterlimit="10"/>
<path d="M392.705 111.802C392.994 123.008 384.127 132.324 372.898 132.613C362.972 132.869 354.523 125.98 352.501 116.635C352.236 115.409 352.079 114.142 352.046 112.842C351.756 101.639 360.623 92.3191 371.852 92.0302C377.696 91.8816 383.023 94.2013 386.832 98.0441C390.347 101.59 392.564 106.427 392.705 111.797V111.802Z" fill="#FFC200"/>
<path d="M386.832 98.0483C381.654 108.933 370.669 116.586 357.774 116.916C355.983 116.961 354.221 116.862 352.501 116.635C352.236 115.409 352.079 114.142 352.046 112.842C351.756 101.639 360.623 92.3191 371.852 92.0302C377.696 91.8816 383.023 94.2013 386.832 98.0441V98.0483Z" fill="black"/>
<path d="M371.699 92.03C375.979 92.03 379.449 88.5668 379.449 84.2948C379.449 80.0227 375.979 76.5596 371.699 76.5596C367.418 76.5596 363.948 80.0227 363.948 84.2948C363.948 88.5668 367.418 92.03 371.699 92.03Z" fill="black"/>
<path d="M360.896 79.5357C373.08 79.5357 382.956 69.6784 382.956 57.5188C382.956 45.3592 373.08 35.502 360.896 35.502C348.713 35.502 338.836 45.3592 338.836 57.5188C338.836 69.6784 348.713 79.5357 360.896 79.5357Z" fill="black"/>
<path d="M378.358 123.884C379.472 123.771 380.23 122.268 380.053 120.526C379.875 118.784 378.829 117.464 377.715 117.577C376.602 117.69 375.843 119.194 376.021 120.935C376.198 122.677 377.245 123.998 378.358 123.884Z" fill="black"/>
<path d="M371.68 124.778C372.794 124.664 373.552 123.161 373.375 121.419C373.197 119.677 372.15 118.357 371.037 118.47C369.924 118.583 369.165 120.087 369.342 121.829C369.52 123.57 370.567 124.891 371.68 124.778Z" fill="black"/>
<path d="M378.726 130.529C378.726 130.529 375.314 130.062 375.194 126.975" stroke="black" stroke-width="4" stroke-miterlimit="10"/>
<path d="M371.699 369.061C295.712 369.061 288.053 301.269 319.766 272.59C340.929 253.446 364.883 250.804 338.087 222.802C311.73 195.258 325.366 152.934 371.629 152.934C417.891 152.934 431.523 195.258 405.166 222.802C378.37 250.804 402.324 253.446 423.491 272.59C455.205 301.269 442.309 369.061 371.699 369.061Z" fill="#67E5B4"/>
<path d="M313.194 345.694C314.327 343.106 316.891 341.282 319.902 341.236C324.013 341.17 327.4 344.448 327.467 348.551C327.512 351.473 325.862 354.028 323.426 355.279" stroke="white" stroke-width="3" stroke-miterlimit="10"/>
<path d="M353.452 338.215C356.818 338.215 359.602 340.951 359.655 344.311C359.68 345.967 359.06 347.531 357.906 348.72C356.752 349.908 355.205 350.577 353.547 350.602H353.448C350.081 350.602 347.298 347.869 347.244 344.505C347.219 342.85 347.839 341.286 348.993 340.097C350.147 338.908 351.694 338.24 353.352 338.215H353.452ZM353.452 336.977C353.41 336.977 353.373 336.977 353.332 336.977C349.221 337.043 345.941 340.419 346.003 344.526C346.069 348.592 349.386 351.84 353.448 351.84C353.489 351.84 353.526 351.84 353.568 351.84C357.679 351.774 360.958 348.398 360.896 344.291C360.83 340.225 357.513 336.977 353.452 336.977Z" fill="white"/>
<path d="M369.623 237.282C372.989 237.282 375.773 240.018 375.826 243.378C375.88 246.792 373.142 249.615 369.718 249.669H369.619C366.252 249.669 363.469 246.936 363.415 243.572C363.361 240.159 366.099 237.335 369.523 237.282H369.623ZM369.623 236.043C369.581 236.043 369.544 236.043 369.503 236.043C365.392 236.109 362.112 239.486 362.174 243.593C362.24 247.659 365.557 250.907 369.619 250.907C369.66 250.907 369.697 250.907 369.738 250.907C373.849 250.841 377.129 247.465 377.067 243.358C377.001 239.292 373.684 236.043 369.623 236.043Z" fill="white"/>
<path d="M384.636 160.727C388.002 160.727 390.785 163.463 390.839 166.823C390.893 170.237 388.155 173.06 384.731 173.114H384.631C381.265 173.114 378.482 170.381 378.428 167.017C378.374 163.604 381.112 160.78 384.536 160.727H384.636ZM384.636 159.488C384.594 159.488 384.557 159.488 384.516 159.488C380.405 159.554 377.125 162.931 377.187 167.038C377.253 171.103 380.57 174.352 384.631 174.352C384.673 174.352 384.71 174.352 384.751 174.352C388.862 174.286 392.142 170.909 392.08 166.802C392.014 162.737 388.697 159.488 384.636 159.488Z" fill="white"/>
<path d="M338.84 319.158C342.206 319.158 344.99 321.894 345.044 325.254C345.068 326.909 344.448 328.474 343.294 329.663C342.14 330.851 340.593 331.52 338.935 331.545H338.836C335.469 331.545 332.686 328.812 332.632 325.448C332.607 323.793 333.228 322.229 334.382 321.04C335.535 319.851 337.082 319.182 338.741 319.158H338.84ZM338.84 317.919C338.799 317.919 338.761 317.919 338.72 317.919C334.609 317.985 331.329 321.362 331.391 325.469C331.458 329.535 334.774 332.783 338.836 332.783C338.877 332.783 338.914 332.783 338.956 332.783C343.067 332.717 346.346 329.341 346.284 325.234C346.218 321.168 342.901 317.919 338.84 317.919Z" fill="white"/>
<path d="M301.878 311.889C305.981 311.616 309.53 314.712 309.803 318.807C310.076 322.901 306.974 326.443 302.871 326.715" stroke="white" stroke-width="3" stroke-miterlimit="10"/>
<path d="M320.08 271.744C323.256 274.352 323.711 279.033 321.102 282.203C318.492 285.373 313.798 285.827 310.621 283.223" stroke="white" stroke-width="3" stroke-miterlimit="10"/>
<path d="M368.316 304.294C371.682 304.294 374.466 307.031 374.519 310.39C374.573 313.804 371.835 316.627 368.411 316.681H368.312C364.945 316.681 362.162 313.949 362.108 310.584C362.054 307.171 364.792 304.348 368.216 304.294H368.316ZM368.316 303.056C368.274 303.056 368.237 303.056 368.196 303.056C364.085 303.122 360.805 306.498 360.867 310.605C360.933 314.671 364.25 317.919 368.312 317.919C368.353 317.919 368.39 317.919 368.432 317.919C372.543 317.853 375.822 314.477 375.76 310.37C375.694 306.304 372.377 303.056 368.316 303.056Z" fill="white"/>
<path d="M386.836 336.704C390.202 336.704 392.986 339.441 393.039 342.801C393.064 344.456 392.444 346.02 391.29 347.209C390.136 348.398 388.589 349.066 386.931 349.091H386.832C383.465 349.091 380.682 346.359 380.628 342.995C380.603 341.339 381.223 339.775 382.377 338.586C383.531 337.398 385.078 336.729 386.737 336.704H386.836ZM386.836 335.466C386.794 335.466 386.757 335.466 386.716 335.466C382.605 335.532 379.325 338.908 379.387 343.015C379.453 347.081 382.77 350.329 386.832 350.329C386.873 350.329 386.91 350.329 386.952 350.329C391.063 350.263 394.342 346.887 394.28 342.78C394.214 338.714 390.897 335.466 386.836 335.466Z" fill="white"/>
<path d="M410.207 316.624C413.574 316.624 416.357 319.36 416.411 322.72C416.436 324.375 415.815 325.94 414.661 327.128C413.507 328.317 411.961 328.986 410.302 329.011H410.203C406.836 329.011 404.053 326.278 403.999 322.914C403.974 321.259 404.595 319.695 405.749 318.506C406.903 317.317 408.449 316.648 410.108 316.624H410.207ZM410.207 315.385C410.166 315.385 410.129 315.385 410.087 315.385C405.976 315.451 402.697 318.828 402.759 322.935C402.825 327 406.142 330.249 410.203 330.249C410.244 330.249 410.282 330.249 410.323 330.249C414.434 330.183 417.714 326.806 417.652 322.699C417.585 318.634 414.268 315.385 410.207 315.385Z" fill="white"/>
<path d="M427.966 345.694C427.052 344.481 426.502 342.983 426.477 341.352C426.411 337.249 429.695 333.869 433.806 333.803C434.211 333.794 434.612 333.823 435.001 333.877" stroke="white" stroke-width="3" stroke-miterlimit="10"/>
<path d="M371.281 369.176C371.215 365.074 374.499 361.693 378.61 361.627C382.721 361.561 386.108 364.838 386.174 368.941" stroke="white" stroke-width="3" stroke-miterlimit="10"/>
<path d="M322.95 296.864C326.317 296.864 329.1 299.601 329.154 302.961C329.179 304.616 328.558 306.18 327.405 307.369C326.251 308.558 324.704 309.227 323.045 309.251H322.946C319.58 309.251 316.796 306.519 316.742 303.155C316.718 301.5 317.338 299.935 318.492 298.746C319.646 297.558 321.193 296.889 322.851 296.864H322.95ZM322.95 295.626C322.909 295.626 322.872 295.626 322.83 295.626C318.719 295.692 315.44 299.068 315.502 303.175C315.568 307.241 318.885 310.49 322.946 310.49C322.987 310.49 323.025 310.49 323.066 310.49C327.177 310.424 330.457 307.047 330.395 302.94C330.328 298.874 327.012 295.626 322.95 295.626Z" fill="white"/>
<path d="M388.771 285.996C392.138 285.996 394.921 288.733 394.975 292.093C395.029 295.506 392.291 298.33 388.866 298.383H388.767C385.401 298.383 382.617 295.651 382.564 292.287C382.51 288.873 385.248 286.05 388.672 285.996H388.771ZM388.771 284.758C388.73 284.758 388.693 284.758 388.651 284.758C384.54 284.824 381.261 288.2 381.323 292.307C381.389 296.373 384.706 299.621 388.767 299.621C388.809 299.621 388.846 299.621 388.887 299.621C392.998 299.555 396.278 296.179 396.216 292.072C396.15 288.006 392.833 284.758 388.771 284.758Z" fill="white"/>
<path d="M349.808 271.133C353.175 271.133 355.958 273.869 356.012 277.229C356.037 278.885 355.416 280.449 354.262 281.638C353.108 282.826 351.562 283.495 349.903 283.52H349.804C346.437 283.52 343.654 280.787 343.6 277.423C343.546 274.01 346.284 271.186 349.709 271.133H349.808ZM349.808 269.895C349.767 269.895 349.729 269.895 349.688 269.895C345.577 269.961 342.297 273.337 342.36 277.444C342.426 281.51 345.743 284.758 349.804 284.758C349.845 284.758 349.882 284.758 349.924 284.758C354.035 284.692 357.314 281.316 357.252 277.209C357.186 273.143 353.869 269.895 349.808 269.895Z" fill="white"/>
<path d="M381.108 260.813C384.474 260.813 387.258 263.55 387.311 266.91C387.365 270.324 384.627 273.147 381.203 273.201H381.104C377.737 273.201 374.954 270.468 374.9 267.104C374.875 265.449 375.495 263.884 376.649 262.696C377.803 261.507 379.35 260.838 381.008 260.813H381.108ZM381.108 259.575C381.066 259.575 381.029 259.575 380.988 259.575C376.877 259.641 373.597 263.018 373.659 267.125C373.725 271.19 377.042 274.439 381.104 274.439C381.145 274.439 381.182 274.439 381.224 274.439C385.335 274.373 388.614 270.996 388.552 266.889C388.486 262.824 385.169 259.575 381.108 259.575Z" fill="white"/>
<path d="M342.36 200.286C345.726 200.286 348.509 203.022 348.563 206.382C348.588 208.037 347.968 209.602 346.814 210.791C345.66 211.979 344.113 212.648 342.455 212.673H342.355C338.989 212.673 336.206 209.94 336.152 206.576C336.098 203.163 338.836 200.339 342.26 200.286H342.36ZM342.36 199.047C342.318 199.047 342.281 199.047 342.24 199.047C338.129 199.113 334.849 202.49 334.911 206.597C334.977 210.663 338.294 213.911 342.355 213.911C342.397 213.911 342.434 213.911 342.475 213.911C346.586 213.845 349.866 210.469 349.804 206.362C349.738 202.296 346.421 199.047 342.36 199.047Z" fill="white"/>
<path d="M327.123 175.924C331.127 176.87 333.6 180.877 332.649 184.869C331.702 188.864 327.686 191.333 323.686 190.383" stroke="white" stroke-width="3" stroke-miterlimit="10"/>
<path d="M364.176 178.822C367.542 178.822 370.326 181.558 370.38 184.918C370.404 186.574 369.784 188.138 368.63 189.327C367.476 190.515 365.929 191.184 364.271 191.209H364.172C360.805 191.209 358.022 188.476 357.968 185.112C357.914 181.699 360.652 178.875 364.077 178.822H364.176ZM364.176 177.583C364.135 177.583 364.097 177.583 364.056 177.583C359.945 177.65 356.665 181.026 356.727 185.133C356.793 189.199 360.11 192.447 364.172 192.447C364.213 192.447 364.25 192.447 364.292 192.447C368.403 192.381 371.682 189.005 371.62 184.898C371.554 180.832 368.237 177.583 364.176 177.583Z" fill="white"/>
<path d="M379.333 207.715C382.7 207.715 385.483 210.452 385.537 213.812C385.591 217.225 382.853 220.049 379.429 220.102H379.329C375.963 220.102 373.179 217.37 373.126 214.006C373.072 210.592 375.81 207.769 379.234 207.715H379.333ZM379.333 206.477C379.292 206.477 379.255 206.477 379.214 206.477C375.103 206.543 371.823 209.92 371.885 214.027C371.951 218.092 375.268 221.341 379.329 221.341C379.371 221.341 379.408 221.341 379.449 221.341C383.56 221.275 386.84 217.898 386.778 213.791C386.712 209.726 383.395 206.477 379.333 206.477Z" fill="white"/>
<path d="M439.708 304.179C435.725 305.202 431.664 302.812 430.638 298.838C429.612 294.863 432.007 290.809 435.99 289.786" stroke="white" stroke-width="3" stroke-miterlimit="10"/>
<path d="M407.523 274.426C410.89 274.426 413.673 277.163 413.727 280.523C413.78 283.936 411.043 286.76 407.618 286.813H407.519C404.152 286.813 401.369 284.081 401.315 280.717C401.261 277.303 403.999 274.48 407.424 274.426H407.523ZM407.523 273.188C407.482 273.188 407.444 273.188 407.403 273.188C403.292 273.254 400.012 276.63 400.074 280.737C400.141 284.803 403.458 288.052 407.519 288.052C407.56 288.052 407.597 288.052 407.639 288.052C411.75 287.986 415.029 284.609 414.967 280.502C414.901 276.436 411.584 273.188 407.523 273.188Z" fill="white"/>
<path d="M352 155.852C353.927 159.476 352.546 163.975 348.911 165.898C345.279 167.822 340.771 166.443 338.844 162.815" stroke="white" stroke-width="3" stroke-miterlimit="10"/>
<path d="M418.226 186.053C414.115 186.148 410.708 182.896 410.612 178.793C410.555 176.316 411.721 174.096 413.557 172.705" stroke="white" stroke-width="3" stroke-miterlimit="10"/>
<path d="M390.405 185.311C393.772 185.311 396.555 188.047 396.609 191.407C396.662 194.821 393.925 197.644 390.5 197.698H390.401C387.034 197.698 384.251 194.965 384.197 191.601C384.143 188.188 386.881 185.364 390.306 185.311H390.405ZM390.405 184.072C390.364 184.072 390.326 184.072 390.285 184.072C386.174 184.138 382.894 187.515 382.956 191.622C383.023 195.687 386.34 198.936 390.401 198.936C390.442 198.936 390.479 198.936 390.521 198.936C394.632 198.87 397.911 195.493 397.849 191.386C397.783 187.321 394.466 184.072 390.405 184.072Z" fill="white"/>
<path d="M409.103 218.13C405.563 217.606 402.816 214.588 402.759 210.898C402.692 206.795 405.976 203.415 410.087 203.349C412.407 203.311 414.496 204.339 415.886 205.974" stroke="white" stroke-width="3" stroke-miterlimit="10"/>
<path d="M326.445 147.105C313.558 155.81 274.38 197.858 278.189 212.933C282.391 229.563 338.501 254.799 343.534 256.24C349.208 257.862 358.262 243.056 357.769 240.282C357.182 236.976 347.248 244.348 347.248 244.348C347.248 244.348 356.558 228.387 356.239 225.382C355.904 222.199 345.548 237.467 345.548 237.467C345.548 237.467 348.811 221.609 347.753 219.454C346.524 216.957 340.457 233.847 340.457 233.847L310.559 209.647L320.762 199.456" stroke="black" stroke-width="4" stroke-linejoin="bevel"/>
<path d="M410.43 144.818C423.93 154.968 464.961 202.139 460.577 217.056C455.742 233.517 404.636 254.572 399.549 255.819C393.817 257.222 381.774 248.918 382.369 246.169C383.08 242.887 394.086 246.784 394.086 246.784C394.086 246.784 381.05 232.651 381.48 229.658C381.935 226.492 394.586 238.929 394.586 238.929C394.586 238.929 390.645 223.644 391.786 221.531C393.106 219.083 399.421 232.58 399.421 232.58L428.347 212.541L419.446 202.948" stroke="black" stroke-width="4" stroke-linejoin="bevel"/>
<path d="M572.826 296.126C607.387 296.126 635.405 268.163 635.405 233.67C635.405 199.177 607.387 171.215 572.826 171.215C538.265 171.215 510.248 199.177 510.248 233.67C510.248 268.163 538.265 296.126 572.826 296.126Z" fill="#FFC200"/>
<path d="M155.525 296.126C190.087 296.126 218.104 268.163 218.104 233.67C218.104 199.177 190.087 171.215 155.525 171.215C120.964 171.215 92.9468 199.177 92.9468 233.67C92.9468 268.163 120.964 296.126 155.525 296.126Z" fill="#0083C8"/>
<path d="M103.274 199.65C110.267 198.016 117.232 197.921 124.313 199.035C130.458 200.001 136.48 201.636 142.651 202.453C154.003 203.955 165.091 202.383 174.215 195.077C179.409 190.916 184.195 185.74 188.417 180.618C188.678 180.3 188.268 179.871 187.958 180.159C182.387 185.315 177.768 191.482 171.51 195.886C164.988 200.48 157.324 202.246 149.417 202.069C141.592 201.891 134.065 199.832 126.401 198.494C118.58 197.132 110.817 196.922 103.137 199.147C102.815 199.242 102.947 199.729 103.278 199.65H103.274Z" fill="white"/>
<path d="M93.621 242.169C100.482 237.08 108.63 233.555 117.125 232.42C126.364 231.185 135.359 233.418 144.363 235.193C152.175 236.733 160.294 237.6 168.148 235.808C175.795 234.062 181.974 229.547 187.412 224.073C194.791 216.656 202.173 208.987 208.985 201.049C209.253 200.736 208.832 200.298 208.526 200.591C201.644 207.212 195.287 214.415 188.703 221.329C183.008 227.305 176.796 232.655 168.595 234.719C151.216 239.094 134.474 229.183 117.071 231.553C108.423 232.729 100.11 236.316 93.3066 241.756C93.0792 241.938 93.3852 242.342 93.6251 242.165L93.621 242.169Z" fill="white"/>
<path d="M106.897 274.133C113.646 269.329 121.533 265.981 129.772 264.883C138.747 263.686 147.506 265.762 156.253 267.517C163.735 269.019 171.423 269.973 179.008 268.635C186.465 267.318 192.764 263.48 198.203 258.337C201.457 255.257 204.472 251.918 207.541 248.653C211.226 244.732 215.023 240.877 218.518 236.786C218.786 236.473 218.365 236.035 218.059 236.328C211.706 242.416 205.945 249.111 199.782 255.39C194.063 261.218 187.632 265.96 179.459 267.579C162.606 270.918 146.497 261.709 129.656 264.021C121.285 265.172 113.258 268.569 106.578 273.72C106.347 273.902 106.653 274.302 106.897 274.129V274.133Z" fill="white"/>
<path d="M132.559 291.573C128.324 285.843 125.185 279.301 123.568 272.358C121.748 264.553 122.406 256.743 123.924 248.942C126.488 235.767 130.206 221.085 122.873 208.669C119.254 202.543 113.903 197.082 108.472 192.53C108.154 192.266 107.724 192.678 108.013 192.988C112.571 197.809 117.509 202.23 121.178 207.823C125.293 214.101 126.496 221.605 126.186 228.997C125.876 236.39 123.916 243.605 122.633 250.903C121.351 258.201 121.037 264.945 122.58 271.913C124.188 279.185 127.46 286.099 132.154 291.89C132.34 292.117 132.741 291.812 132.563 291.573H132.559Z" fill="white"/>
<path d="M176.395 292.39C161.89 283.768 155.05 266.142 156.464 249.822C157.283 240.361 160.426 231.268 160.956 221.766C161.44 213.131 159.781 204.612 154.735 197.45C152.105 193.719 148.85 190.499 145.533 187.383C141.253 183.363 137.026 179.235 132.564 175.413C132.249 175.144 131.811 175.565 132.104 175.871C138.693 182.677 146.418 188.551 152.37 195.952C158.681 203.794 160.67 213.284 159.905 223.17C159.14 233.055 155.993 241.818 155.443 251.353C154.959 259.67 156.555 268.116 160.244 275.603C163.751 282.719 169.107 289.001 176.126 292.84C176.419 293.001 176.68 292.559 176.39 292.39H176.395Z" fill="white"/>
<path d="M202.483 274.976C192.003 264.169 187.35 249.079 189.327 234.269C191.304 219.459 196.747 205.623 190.94 191.482C188.177 184.754 183.008 179.107 177.486 174.48C177.172 174.216 176.734 174.629 177.027 174.938C181.833 180.015 186.887 184.696 189.757 191.222C192.851 198.251 193.053 206.18 192.11 213.697C191.168 221.213 188.976 228.54 188.19 236.093C187.454 243.168 188.173 250.193 190.518 256.917C192.925 263.823 196.767 270.311 202.107 275.351C202.351 275.582 202.711 275.223 202.475 274.984L202.483 274.976Z" fill="white"/>
<path d="M521.915 269.997C521.915 269.997 549.558 218.864 567.131 224.197C584.708 229.53 580.382 275.508 580.382 275.508C580.382 275.508 599.531 247.06 608.282 249.855C617.034 252.649 612.575 282.772 612.575 282.772" stroke="white" stroke-width="4" stroke-miterlimit="10"/>
<path d="M584.452 172.296C584.452 172.296 577.839 211.753 592.343 220.643C606.851 229.534 632.489 214.79 632.489 214.79" stroke="white" stroke-width="4" stroke-miterlimit="10"/>
<path d="M565.609 171.632C565.609 171.632 566.209 213.362 511.712 220.198" stroke="white" stroke-width="4" stroke-miterlimit="10"/>
<path d="M541.233 287.594C541.233 287.594 572.665 214.134 565.241 295.671" stroke="white" stroke-width="4" stroke-miterlimit="10"/>
<path d="M605.425 180.349C605.425 180.349 598.452 216.458 623.138 194.672" stroke="white" stroke-width="4" stroke-miterlimit="10"/>
</svg>
