<svg width="733" height="474" viewBox="0 0 733 474" fill="none" xmlns="http://www.w3.org/2000/svg">
<path d="M655.569 18.5373C653.109 18.5373 651.075 16.534 651.039 14.072C651.019 12.8612 651.473 11.7147 652.317 10.8417C653.161 9.97281 654.291 9.48203 655.5 9.46191H655.573C658.032 9.46191 660.066 11.4653 660.102 13.9272C660.142 16.4294 658.141 18.4971 655.641 18.5373H655.569Z" fill="white"/>
<path d="M655.573 10.0651C657.707 10.0651 659.467 11.803 659.499 13.9391C659.535 16.1074 657.799 17.9015 655.633 17.9337H655.569C653.435 17.9337 651.674 16.1959 651.642 14.0638C651.606 11.8955 653.342 10.1013 655.508 10.0691H655.573M655.573 8.8623C655.545 8.8623 655.516 8.8623 655.488 8.8623C652.651 8.90656 650.388 11.2438 650.432 14.0839C650.476 16.8958 652.767 19.1446 655.565 19.1446C655.593 19.1446 655.621 19.1446 655.649 19.1446C658.486 19.1003 660.749 16.7631 660.705 13.923C660.661 11.111 658.37 8.8623 655.573 8.8623Z" fill="#170C2C"/>
<path d="M727.864 459.242C725.404 459.242 723.37 457.239 723.334 454.777C723.294 452.275 725.295 450.207 727.795 450.167H727.868C730.327 450.167 732.361 452.17 732.397 454.632C732.417 455.843 731.963 456.99 731.119 457.863C730.275 458.732 729.146 459.222 727.936 459.242H727.864Z" fill="white"/>
<path d="M727.868 450.77C730.002 450.77 731.762 452.508 731.794 454.644C731.83 456.812 730.094 458.607 727.928 458.639H727.864C725.729 458.639 723.969 456.901 723.937 454.769C723.921 453.719 724.315 452.725 725.042 451.969C725.77 451.213 726.754 450.79 727.803 450.774H727.868M727.868 449.567C727.839 449.567 727.811 449.567 727.783 449.567C724.946 449.612 722.683 451.949 722.727 454.789C722.771 457.601 725.062 459.85 727.86 459.85C727.888 459.85 727.916 459.85 727.944 459.85C730.781 459.805 733.044 457.468 733 454.628C732.956 451.816 730.665 449.567 727.868 449.567Z" fill="#170C2C"/>
<path d="M459.752 465.188C457.292 465.188 455.259 463.184 455.223 460.722C455.182 458.22 457.184 456.153 459.684 456.112H459.756C462.216 456.112 464.249 458.116 464.285 460.578C464.306 461.789 463.851 462.935 463.007 463.808C462.163 464.677 461.034 465.168 459.824 465.188H459.752Z" fill="white"/>
<path d="M459.756 456.716C461.89 456.716 463.65 458.453 463.683 460.589C463.699 461.639 463.305 462.633 462.577 463.389C461.846 464.146 460.865 464.568 459.816 464.584H459.752C457.618 464.584 455.858 462.846 455.825 460.714C455.789 458.546 457.525 456.752 459.692 456.72H459.756M459.756 455.513C459.728 455.513 459.7 455.513 459.672 455.513C456.834 455.557 454.571 457.894 454.616 460.734C454.66 463.546 456.951 465.795 459.748 465.795C459.776 465.795 459.804 465.795 459.832 465.795C462.67 465.751 464.933 463.413 464.888 460.573C464.844 457.761 462.553 455.513 459.756 455.513Z" fill="#170C2C"/>
<path d="M461.697 262.632C459.237 262.632 457.204 260.629 457.168 258.167C457.148 256.956 457.602 255.809 458.446 254.936C459.29 254.068 460.419 253.577 461.629 253.557H461.701C464.161 253.557 466.194 255.56 466.231 258.022C466.271 260.524 464.269 262.592 461.769 262.632H461.697Z" fill="white"/>
<path d="M461.697 254.16C463.831 254.16 465.592 255.898 465.624 258.034C465.64 259.084 465.246 260.077 464.519 260.834C463.791 261.59 462.806 262.012 461.757 262.028H461.693C459.559 262.028 457.799 260.291 457.767 258.158C457.73 255.99 459.467 254.196 461.633 254.164H461.697M461.697 252.957C461.669 252.957 461.641 252.957 461.613 252.957C458.775 253.001 456.513 255.339 456.557 258.179C456.601 260.991 458.892 263.239 461.689 263.239C461.717 263.239 461.745 263.239 461.774 263.239C464.611 263.195 466.874 260.858 466.83 258.018C466.785 255.206 464.494 252.957 461.697 252.957Z" fill="#170C2C"/>
<path d="M52.4841 274.238C51.9937 274.238 51.5034 274.158 51.0332 273.997C48.666 273.196 47.3879 270.618 48.1877 268.244C48.8106 266.398 50.5348 265.159 52.4841 265.159C52.9744 265.159 53.4647 265.239 53.935 265.4C55.0804 265.786 56.0088 266.599 56.5473 267.685C57.0859 268.771 57.1663 270.002 56.7804 271.149C56.1575 272.995 54.4333 274.234 52.4841 274.234V274.238Z" fill="white"/>
<path d="M52.4842 265.766C52.9102 265.766 53.3322 265.834 53.7421 265.975C55.7959 266.671 56.9011 268.908 56.2098 270.963C55.6713 272.564 54.1722 273.639 52.4882 273.639C52.0622 273.639 51.6402 273.57 51.2302 273.429C50.2375 273.091 49.4297 272.387 48.9675 271.446C48.5013 270.505 48.4289 269.439 48.7665 268.441C49.3051 266.84 50.8042 265.766 52.4882 265.766M52.4882 264.559C50.346 264.559 48.3445 265.911 47.6211 268.055C46.7128 270.746 48.1556 273.663 50.8444 274.572C51.391 274.757 51.9456 274.845 52.4882 274.845C54.6304 274.845 56.6318 273.494 57.3553 271.35C58.2636 268.658 56.8207 265.742 54.132 264.833C53.5854 264.648 53.0308 264.559 52.4882 264.559Z" fill="#170C2C"/>
<path d="M259.404 409.433L253.402 413.639L257.603 419.647L263.606 415.441L259.404 409.433Z" fill="white"/>
<path d="M259.249 410.297L262.758 415.313L257.746 418.825L254.237 413.809L259.249 410.297ZM259.546 408.615L252.557 413.511L257.448 420.507L264.437 415.611L259.546 408.615Z" fill="#170C2C"/>
<path d="M718.907 151.254L712.904 155.459L717.106 161.467L723.108 157.262L718.907 151.254Z" fill="white"/>
<path d="M718.777 152.134L722.285 157.151L717.274 160.662L713.765 155.646L718.777 152.134ZM719.074 150.453L712.085 155.348L716.976 162.344L723.965 157.448L719.074 150.453Z" fill="#170C2C"/>
<path d="M301.81 215.999L295.808 220.204L300.009 226.212L306.011 222.007L301.81 215.999Z" fill="white"/>
<path d="M301.658 216.869L305.167 221.885L300.155 225.397L296.646 220.38L301.658 216.869ZM301.955 215.187L294.966 220.083L299.858 227.078L306.847 222.183L301.955 215.187Z" fill="#170C2C"/>
<path d="M218.554 0.844353L212.919 5.53174L217.602 11.1717L223.237 6.48433L218.554 0.844353Z" fill="white"/>
<path d="M218.48 1.69762L222.39 6.40831L217.684 10.3225L213.773 5.6118L218.48 1.69762ZM218.636 0L212.077 5.45893L217.531 12.0241L224.09 6.5652L218.636 0Z" fill="#170C2C"/>
<path d="M360.734 328.549L368.162 342.424" stroke="#170C2C" stroke-width="3" stroke-miterlimit="10"/>
<path d="M16.3448 128.613L1.15674 132.68" stroke="#170C2C" stroke-width="3" stroke-miterlimit="10"/>
<path d="M31.7901 462.477L19.6968 472.534" stroke="#170C2C" stroke-width="3" stroke-miterlimit="10"/>
<path d="M471.331 10.9941L481.881 22.6643" stroke="#170C2C" stroke-width="3" stroke-miterlimit="10"/>
<path d="M688.481 262.52L694.907 276.881" stroke="#170C2C" stroke-width="3" stroke-miterlimit="10"/>
<path d="M346.949 124.783L361.301 118.351" stroke="#170C2C" stroke-width="3" stroke-miterlimit="10"/>
<path d="M603.65 416.757L607.123 401.406" stroke="#170C2C" stroke-width="3" stroke-miterlimit="10"/>
<path d="M74.7379 20.1983L66.7681 7.77588" stroke="#170C2C" stroke-width="3" stroke-miterlimit="10"/>
<path d="M648.443 337.432L694.907 350.626L663.768 420.965L669.76 358.978L648.174 349.162" fill="#0083C8"/>
<path d="M522.622 366.883L532.393 405.856L456.167 396.555L512.47 388.372L506.011 362.116" fill="#0083C8"/>
<path d="M581.232 209.853C607.392 203.976 626.72 209.43 635.642 228.434C642.997 244.103 635.429 271.953 618.204 303.749L665.641 326.498C665.641 326.498 674.422 337.017 665.452 351.745C656.702 366.106 643.713 367.534 643.713 367.534L584.222 337.327C570.341 330.279 563.95 313.927 569.368 299.32L584.636 258.151L546.636 296.25L537.396 369.594C537.396 369.594 533.594 378.71 517.241 379.687C499.275 380.761 492.053 373.303 492.053 373.303L498.295 293.756C499.074 283.836 502.732 274.366 508.821 266.506C522.936 248.287 551.162 216.607 581.24 209.849L581.232 209.853Z" fill="#FFC200"/>
<path d="M510.042 353.016C512.176 353.016 513.937 354.754 513.969 356.89C513.985 357.94 513.591 358.933 512.864 359.69C512.136 360.446 511.152 360.868 510.103 360.884H510.038C507.904 360.884 506.144 359.147 506.112 357.014C506.076 354.846 507.812 353.052 509.978 353.02H510.042M510.042 351.813C510.014 351.813 509.986 351.813 509.958 351.813C507.121 351.857 504.858 354.194 504.902 357.035C504.946 359.847 507.237 362.095 510.034 362.095C510.062 362.095 510.091 362.095 510.119 362.095C512.956 362.051 515.219 359.714 515.175 356.874C515.13 354.062 512.84 351.813 510.042 351.813Z" fill="#170C2C"/>
<path d="M511.337 289.766C513.471 289.766 515.231 291.504 515.263 293.64C515.299 295.808 513.563 297.602 511.397 297.634H511.333C509.198 297.634 507.438 295.897 507.406 293.764C507.39 292.715 507.784 291.721 508.511 290.965C509.239 290.208 510.223 289.786 511.272 289.77H511.337M511.337 288.563C511.308 288.563 511.28 288.563 511.252 288.563C508.415 288.607 506.152 290.944 506.196 293.785C506.24 296.596 508.531 298.845 511.329 298.845C511.357 298.845 511.385 298.845 511.413 298.845C514.25 298.801 516.513 296.464 516.469 293.624C516.425 290.812 514.134 288.563 511.337 288.563Z" fill="#170C2C"/>
<path d="M534.342 263.509C536.476 263.509 538.236 265.247 538.268 267.383C538.305 269.551 536.568 271.345 534.402 271.378H534.338C532.204 271.378 530.443 269.64 530.411 267.508C530.395 266.458 530.789 265.464 531.516 264.708C532.244 263.951 533.228 263.529 534.277 263.513H534.342M534.342 262.306C534.314 262.306 534.285 262.306 534.257 262.306C531.42 262.35 529.157 264.688 529.201 267.528C529.246 270.34 531.536 272.588 534.334 272.588C534.362 272.588 534.39 272.588 534.418 272.588C537.256 272.544 539.518 270.207 539.474 267.367C539.43 264.555 537.139 262.306 534.342 262.306Z" fill="#170C2C"/>
<path d="M511.847 262.56C514.102 264.281 514.54 267.508 512.819 269.764C511.099 272.021 507.876 272.46 505.621 270.738" stroke="#170C2C" stroke-width="3" stroke-miterlimit="10"/>
<path d="M574.766 223.526C576.9 223.526 578.66 225.264 578.692 227.4C578.708 228.45 578.314 229.444 577.587 230.2C576.859 230.956 575.875 231.379 574.826 231.395H574.762C572.627 231.395 570.867 229.657 570.835 227.525C570.799 225.356 572.535 223.562 574.701 223.53H574.766M574.766 222.323C574.737 222.323 574.709 222.323 574.681 222.323C571.844 222.367 569.581 224.705 569.625 227.545C569.669 230.357 571.96 232.605 574.758 232.605C574.786 232.605 574.814 232.605 574.842 232.605C577.679 232.561 579.942 230.224 579.898 227.384C579.854 224.572 577.563 222.323 574.766 222.323Z" fill="#170C2C"/>
<path d="M540.193 232.598C541.652 233.487 542.633 235.08 542.665 236.91C542.709 239.75 540.447 242.087 537.609 242.132C535.547 242.164 533.747 240.973 532.903 239.231" stroke="#170C2C" stroke-width="3" stroke-miterlimit="10"/>
<path d="M567.009 249.019C569.143 249.019 570.903 250.757 570.935 252.893C570.951 253.943 570.558 254.936 569.83 255.693C569.103 256.449 568.118 256.871 567.069 256.887H567.005C564.871 256.887 563.11 255.149 563.078 253.017C563.062 251.967 563.456 250.974 564.183 250.218C564.911 249.461 565.895 249.039 566.944 249.023H567.009M567.009 247.816C566.981 247.816 566.952 247.816 566.924 247.816C564.087 247.86 561.824 250.197 561.868 253.037C561.913 255.849 564.203 258.098 567.001 258.098C567.029 258.098 567.057 258.098 567.085 258.098C569.923 258.054 572.185 255.717 572.141 252.877C572.097 250.065 569.806 247.816 567.009 247.816Z" fill="#170C2C"/>
<path d="M607.678 208.034C606.878 209.776 605.133 210.995 603.092 211.027C600.829 211.063 598.884 209.627 598.168 207.608" stroke="#170C2C" stroke-width="3" stroke-miterlimit="10"/>
<path d="M604.663 261.232C606.797 261.232 608.558 262.97 608.59 265.106C608.606 266.156 608.212 267.15 607.485 267.906C606.757 268.662 605.773 269.085 604.724 269.101H604.659C602.525 269.101 600.765 267.363 600.733 265.231C600.696 263.062 602.433 261.268 604.599 261.236H604.663M604.663 260.029C604.635 260.029 604.607 260.029 604.579 260.029C601.741 260.074 599.479 262.411 599.523 265.251C599.567 268.063 601.858 270.312 604.655 270.312C604.683 270.312 604.711 270.312 604.74 270.312C607.577 270.267 609.84 267.93 609.796 265.09C609.751 262.278 607.461 260.029 604.663 260.029Z" fill="#170C2C"/>
<path d="M591.191 297.992C593.325 297.992 595.086 299.73 595.118 301.866C595.154 304.035 593.418 305.829 591.252 305.861H591.187C589.053 305.861 587.293 304.123 587.261 301.991C587.245 300.941 587.638 299.947 588.366 299.191C589.093 298.435 590.078 298.012 591.127 297.996H591.191M591.191 296.79C591.163 296.79 591.135 296.79 591.107 296.79C588.269 296.834 586.007 299.171 586.051 302.011C586.095 304.823 588.386 307.072 591.183 307.072C591.211 307.072 591.24 307.072 591.268 307.072C594.105 307.028 596.368 304.69 596.324 301.85C596.279 299.038 593.989 296.79 591.191 296.79Z" fill="#170C2C"/>
<path d="M643.519 315.89C642.619 317.274 641.068 318.195 639.295 318.223C636.458 318.267 634.123 316.002 634.079 313.162C634.071 312.575 634.159 312.012 634.332 311.485" stroke="#170C2C" stroke-width="3" stroke-miterlimit="10"/>
<path d="M669.583 340.038C666.794 340.561 664.113 338.723 663.587 335.931C663.064 333.139 664.901 330.456 667.69 329.929" stroke="#170C2C" stroke-width="3" stroke-miterlimit="10"/>
<path d="M569.517 321.071C569.935 320.955 570.377 320.886 570.831 320.878C573.668 320.834 576.003 323.099 576.048 325.939C576.072 327.379 575.497 328.69 574.556 329.64" stroke="#170C2C" stroke-width="3" stroke-miterlimit="10"/>
<path d="M608.148 226.342C610.282 226.342 612.042 228.08 612.074 230.216C612.111 232.385 610.374 234.179 608.208 234.211H608.144C606.01 234.211 604.249 232.473 604.217 230.341C604.201 229.291 604.595 228.298 605.322 227.541C606.05 226.785 607.035 226.363 608.084 226.346H608.148M608.148 225.14C608.12 225.14 608.092 225.14 608.063 225.14C605.226 225.184 602.963 227.521 603.007 230.361C603.052 233.173 605.343 235.422 608.14 235.422C608.168 235.422 608.196 235.422 608.224 235.422C611.062 235.378 613.324 233.04 613.28 230.2C613.236 227.388 610.945 225.14 608.148 225.14Z" fill="#170C2C"/>
<path d="M625.12 290.08C622.894 289.545 621.226 287.557 621.186 285.16C621.141 282.32 623.404 279.982 626.242 279.938C627.307 279.922 628.299 280.228 629.127 280.771" stroke="#170C2C" stroke-width="3" stroke-miterlimit="10"/>
<path d="M605.973 348.378C606.894 347.348 608.228 346.692 609.715 346.672C612.553 346.628 614.888 348.893 614.932 351.733C614.94 352.123 614.9 352.505 614.823 352.875" stroke="#170C2C" stroke-width="3" stroke-miterlimit="10"/>
<path d="M637.616 252.7C635.59 252.036 634.115 250.145 634.079 247.892C634.039 245.29 635.94 243.105 638.443 242.727" stroke="#170C2C" stroke-width="3" stroke-miterlimit="10"/>
<path d="M524.788 323.827C526.923 323.827 528.683 325.565 528.715 327.701C528.751 329.869 527.015 331.663 524.849 331.695H524.784C522.65 331.695 520.89 329.958 520.858 327.825C520.842 326.776 521.236 325.782 521.963 325.026C522.691 324.269 523.675 323.847 524.724 323.831H524.788M524.788 322.624C524.76 322.624 524.732 322.624 524.704 322.624C521.867 322.668 519.604 325.006 519.648 327.846C519.692 330.658 521.983 332.906 524.78 332.906C524.809 332.906 524.837 332.906 524.865 332.906C527.702 332.862 529.965 330.525 529.921 327.685C529.877 324.873 527.586 322.624 524.788 322.624Z" fill="#170C2C"/>
<path d="M543.959 318.541C541.146 318.191 539.145 315.624 539.494 312.808C539.844 309.992 542.408 307.989 545.221 308.339" stroke="#170C2C" stroke-width="3" stroke-miterlimit="10"/>
<path d="M495.879 324.965C498.705 325.202 500.807 327.688 500.57 330.516C500.332 333.344 497.849 335.448 495.023 335.211" stroke="#170C2C" stroke-width="3" stroke-miterlimit="10"/>
<path d="M551.463 291.407C550.936 290.614 550.619 289.665 550.603 288.639C550.558 285.799 552.821 283.462 555.659 283.418C556.724 283.402 557.716 283.707 558.544 284.25" stroke="#170C2C" stroke-width="3" stroke-miterlimit="10"/>
<path d="M603.011 316.127C605.146 316.127 606.906 317.865 606.938 320.001C606.974 322.169 605.238 323.964 603.072 323.996H603.007C600.873 323.996 599.113 322.258 599.081 320.126C599.065 319.076 599.459 318.082 600.186 317.326C600.913 316.57 601.898 316.147 602.947 316.131H603.011M603.011 314.924C602.983 314.924 602.955 314.924 602.927 314.924C600.09 314.969 597.827 317.306 597.871 320.146C597.915 322.958 600.206 325.207 603.003 325.207C603.031 325.207 603.06 325.207 603.088 325.207C605.925 325.162 608.188 322.825 608.144 319.985C608.1 317.173 605.809 314.924 603.011 314.924Z" fill="#170C2C"/>
<path d="M636.599 336.692C638.733 336.692 640.493 338.429 640.525 340.566C640.562 342.734 638.825 344.528 636.659 344.56H636.595C634.461 344.56 632.7 342.822 632.668 340.69C632.652 339.64 633.046 338.647 633.773 337.89C634.501 337.134 635.486 336.712 636.534 336.696H636.599M636.599 335.489C636.571 335.489 636.542 335.489 636.514 335.489C633.677 335.533 631.414 337.87 631.458 340.71C631.503 343.522 633.793 345.771 636.591 345.771C636.619 345.771 636.647 345.771 636.675 345.771C639.513 345.727 641.775 343.39 641.731 340.549C641.687 337.738 639.396 335.489 636.599 335.489Z" fill="#170C2C"/>
<path d="M647.997 366.388C646.566 365.443 645.638 363.801 645.686 361.959C645.758 359.119 648.117 356.878 650.951 356.95C653.788 357.023 656.027 359.384 655.955 362.22" stroke="#170C2C" stroke-width="3" stroke-miterlimit="10"/>
<path d="M539.313 354.641C536.492 354.335 534.454 351.801 534.756 348.981C535.061 346.157 537.593 344.118 540.41 344.419" stroke="#170C2C" stroke-width="3" stroke-miterlimit="10"/>
<path d="M516.963 379.764C516.465 376.968 518.322 374.297 521.115 373.798C523.908 373.299 526.577 375.157 527.075 377.953" stroke="#170C2C" stroke-width="3" stroke-miterlimit="10"/>
<path d="M676.018 365.861L663.325 374.618" stroke="white" stroke-width="4" stroke-miterlimit="10"/>
<path d="M674.752 373.713L662.063 382.471" stroke="white" stroke-width="4" stroke-miterlimit="10"/>
<path d="M672.927 382.061L660.235 390.818" stroke="white" stroke-width="4" stroke-miterlimit="10"/>
<path d="M508.423 393.168L494.336 386.908" stroke="white" stroke-width="4" stroke-miterlimit="10"/>
<path d="M501.072 396.193L486.981 389.929" stroke="white" stroke-width="4" stroke-miterlimit="10"/>
<path d="M564.32 108.921C564.69 118.845 573.025 126.581 582.936 126.211C591.698 125.881 598.759 119.324 600.021 110.952C600.186 109.854 600.254 108.728 600.21 107.577C599.84 97.6569 591.505 89.9171 581.59 90.2872C576.433 90.4802 571.868 92.8296 568.725 96.438C565.827 99.7689 564.139 104.166 564.316 108.925L564.32 108.921Z" fill="#FFC200"/>
<path d="M565.128 89.3461C565.281 93.4694 568.745 96.6836 572.86 96.5267C576.502 96.39 579.432 93.6665 579.958 90.1868C580.026 89.7322 580.055 89.2616 580.034 88.7829C579.882 84.6635 576.417 81.4453 572.302 81.6022C570.16 81.6826 568.263 82.6602 566.956 84.1567C565.751 85.5405 565.051 87.3668 565.124 89.342L565.128 89.3461Z" fill="black"/>
<path d="M577.402 86.7877C577.494 89.2979 579.604 91.257 582.112 91.1645C584.331 91.08 586.115 89.4226 586.437 87.3026C586.477 87.025 586.497 86.7394 586.485 86.4498C586.393 83.9395 584.283 81.9804 581.775 82.073C580.469 82.1212 579.315 82.7166 578.519 83.6298C577.784 84.4706 577.358 85.5849 577.402 86.7877Z" fill="black"/>
<path d="M566.673 110.092C567.746 110.052 568.569 108.74 568.51 107.162C568.451 105.583 567.533 104.336 566.459 104.376C565.386 104.416 564.563 105.728 564.622 107.307C564.681 108.885 565.599 110.133 566.673 110.092Z" fill="black"/>
<path d="M573.141 110.048C574.215 110.007 575.037 108.695 574.978 107.117C574.919 105.538 574.001 104.291 572.928 104.331C571.854 104.371 571.032 105.683 571.091 107.262C571.15 108.841 572.068 110.088 573.141 110.048Z" fill="black"/>
<path d="M593.695 107.823C593.832 111.427 596.858 114.239 600.459 114.102C603.643 113.981 606.207 111.6 606.665 108.559C606.725 108.16 606.749 107.75 606.733 107.332C606.597 103.727 603.57 100.915 599.969 101.052C598.096 101.121 596.436 101.977 595.295 103.285C594.242 104.496 593.631 106.093 593.695 107.818V107.823Z" fill="#FFC200"/>
<path d="M569.545 95.9235C569.545 95.9235 576.064 99.7492 587.514 97.2108L588.716 108.008L595.677 106.19C595.677 106.19 597.26 99.8739 603.381 101.865C603.381 101.865 603.421 89.5072 596.095 87.351C583.29 83.5856 572.302 89.5836 569.545 95.9235Z" fill="black"/>
<path d="M569.846 109.729C569.846 109.729 568.656 112.533 565.992 111.918" stroke="black" stroke-width="4" stroke-miterlimit="10"/>
<path d="M608.334 134.31L562.876 142.12C551.128 144.138 543.24 155.306 545.256 167.063C547.272 178.821 558.43 186.716 570.178 184.698L615.636 176.888C627.384 174.869 635.273 163.702 633.256 151.944C631.24 140.186 620.082 132.291 608.334 134.31Z" fill="#066DC1"/>
<path d="M623.163 163.683C623.163 163.683 559.835 210.541 546.515 203.766C531.118 195.934 522.903 139.486 522.903 139.486C522.903 139.486 499.207 127.538 499.573 124.948C500.019 121.786 516.244 126.597 516.244 126.597C516.244 126.597 497.881 117.916 498.608 115.567C499.914 111.351 519.949 121.255 519.949 121.255C519.949 121.255 505.573 107.69 506.678 105.912C507.651 104.351 526.802 116.689 526.802 116.689C526.802 116.689 523.269 107.3 525.154 106.234C527.771 104.757 534.993 115.627 539.607 120.784C543.754 125.422 557.849 171.817 557.849 171.817L595.853 145.436" stroke="black" stroke-width="4" stroke-linejoin="bevel"/>
<path d="M531.737 190.773C531.737 190.773 514.029 191.634 502.728 185.753C490.164 179.215 466.608 135.681 466.608 135.681C466.608 135.681 442.727 120.39 444.504 117.787C446.28 115.185 461.528 121.818 461.528 121.818C461.528 121.818 443.443 108.857 445.476 106.089C448.173 102.42 466.339 115.37 466.339 115.37C466.339 115.37 455.423 101.612 457.336 100.578C459.933 99.182 473.401 111.516 473.401 111.516C473.401 111.516 475.048 102.119 477.231 102.187C480.374 102.284 479.719 113.282 484.594 120.113C488.042 124.944 517.888 161.427 517.888 161.427L524.861 162.324" stroke="black" stroke-width="4" stroke-linejoin="bevel"/>
<path d="M591.774 241.943L575.256 278.108" stroke="white" stroke-width="5" stroke-miterlimit="10"/>
<path d="M158.925 193.311C158.925 193.311 215.678 188.182 227.446 180.205C239.632 171.942 254.595 142.342 261.536 127.945C262.645 125.64 280.578 111.922 279.308 109.963C277.668 107.425 266.576 118.21 266.576 118.21" stroke="black" stroke-width="4" stroke-linejoin="bevel"/>
<path d="M245.962 126.895C266.179 126.895 282.568 110.491 282.568 90.2553C282.568 70.0198 266.179 53.6157 245.962 53.6157C225.745 53.6157 209.356 70.0198 209.356 90.2553C209.356 110.491 225.745 126.895 245.962 126.895Z" fill="#67E5B4"/>
<path d="M66.9127 344.685L28.7959 347.195L42.3522 420.491L50.4185 360.495L76.0681 358.688" fill="black"/>
<path d="M154.42 363.6L125.487 389.129L179.402 439.297L150.557 386.405L169.953 369.135" fill="black"/>
<path d="M164.64 226.878C146.14 218.301 120.953 221.777 110.913 237.824C99.7163 255.713 98.9768 272.178 126.668 329.117L68.0621 334.069C68.0621 334.069 55.2896 338.088 56.8771 358.33C58.4164 377.958 68.3756 381.755 68.3756 381.755L147.37 376.256C166.903 374.896 180.266 355.486 174.965 336.173L160.247 282.557L201.503 301.05L153.797 361.488C153.797 361.488 149.79 370.809 162.804 380.572C174.041 389.004 187.782 386.192 187.782 386.192L239.31 325.018C255.781 305.145 250.568 285.441 234.91 272.182C207.721 249.164 185.937 236.745 164.644 226.874L164.64 226.878Z" fill="#0083C8"/>
<path d="M76.3414 381.24C76.0078 375.286 75.1276 368.459 71.9807 363.262C68.8338 358.064 62.5439 355.808 56.9333 357.216C56.1858 357.401 56.5033 358.559 57.2508 358.37C62.9458 356.946 69.087 359.847 71.635 365.149C73.9983 370.056 74.8423 375.857 75.1437 381.24C75.1879 382.004 76.3816 382.012 76.3414 381.24Z" fill="white"/>
<path d="M68.448 334.017C68.5646 345.305 78.0174 355.156 87.0442 360.635C93.3582 364.469 100.645 367.209 108.14 366.577C115.15 365.986 121.114 362.16 124.004 355.643C125.708 351.797 126.298 347.489 126.017 343.305C125.696 338.486 123.991 334.017 122.396 329.507C122.143 328.787 120.985 329.097 121.242 329.825C123.835 337.154 126.154 344.395 123.971 352.188C121.926 359.489 116.251 364.497 108.703 365.322C101.646 366.09 94.785 363.709 88.7363 360.241C83.2623 357.103 78.3068 352.908 74.6937 347.706C71.9285 343.724 69.6939 338.949 69.6457 334.013C69.6377 333.244 68.44 333.24 68.448 334.013V334.017Z" fill="white"/>
<path d="M157.185 372.925C157.233 366.155 154.58 359.964 150.336 354.774C146.092 349.585 140.867 345.119 134.799 342.678C128.746 340.244 122.038 340.405 115.989 342.778C108.968 345.534 103.655 350.872 99.1053 356.733C93.3902 364.095 88.4066 372.06 83.9856 380.259C83.6199 380.938 84.6528 381.542 85.0185 380.862C88.5633 374.293 92.4819 367.937 96.8064 361.85C101.131 355.764 105.652 349.898 111.966 346.093C117.573 342.71 124.405 341.157 130.856 342.682C137.278 344.198 142.64 348.37 147.157 353.02C152.426 358.443 156.043 365.233 155.987 372.933C155.983 373.705 157.177 373.705 157.185 372.933V372.925Z" fill="white"/>
<path d="M165.938 290.43C158.804 288.281 151.289 287.65 143.906 288.672C138.665 289.396 130.603 290.667 127.552 295.699C124.297 301.074 130.687 306.798 134.421 309.864C139.939 314.393 146.482 317.652 153.013 320.444C160.878 323.803 169.089 326.269 177.493 327.854C178.245 327.994 178.566 326.84 177.811 326.699C165.014 324.289 152.29 319.888 141.125 313.114C138.428 311.477 135.844 309.642 133.521 307.502C131.197 305.362 128.119 302.526 127.858 299.264C127.347 292.887 137.572 290.989 142.057 290.176C149.906 288.752 157.997 289.291 165.625 291.588C166.364 291.809 166.678 290.655 165.942 290.434L165.938 290.43Z" fill="white"/>
<path d="M106.022 279.097C112.232 280.863 118.895 281.101 124.932 278.542C130.583 276.149 134.377 271.49 136.688 265.903C139.421 259.297 140.642 251.952 141.824 244.94C143.078 237.506 144.473 229.69 143.178 222.171C143.05 221.415 141.896 221.732 142.025 222.489C143.279 229.774 141.884 237.417 140.671 244.618C139.618 250.853 138.484 257.242 136.418 263.236C134.425 269.024 131.089 274.226 125.45 276.998C119.474 279.934 112.609 279.729 106.34 277.943C105.596 277.734 105.283 278.888 106.022 279.097Z" fill="white"/>
<path d="M112.706 235.188C122.774 246.11 137.636 249.896 152.024 250.318C165.034 250.696 178.896 248.23 189.168 239.726C189.763 239.235 188.911 238.391 188.324 238.881C178.305 247.172 164.688 249.493 152.024 249.123C137.941 248.713 123.413 245.04 113.554 234.344C113.031 233.776 112.187 234.625 112.71 235.188H112.706Z" fill="white"/>
<path d="M210.003 252.563C204.939 254.872 201.125 258.746 199.493 264.129C197.974 269.149 198.388 274.725 200.209 279.612C204.481 291.093 215.968 297.864 226.49 302.784C230.034 304.441 233.647 305.962 237.309 307.341C240.97 308.721 244.33 309.952 248.104 309.775C248.872 309.739 248.876 308.54 248.104 308.576C244.937 308.725 241.967 307.776 239.029 306.706C235.918 305.571 232.844 304.332 229.813 302.989C224.556 300.66 219.352 298.085 214.609 294.814C205.719 288.684 198.553 279.218 199.932 267.87C200.731 261.292 204.622 256.324 210.61 253.593C211.31 253.275 210.703 252.241 210.007 252.559L210.003 252.563Z" fill="white"/>
<path d="M176.501 349.287C188.546 347.605 201.612 351.125 206.692 363.218C206.985 363.918 208.143 363.612 207.845 362.9C202.488 350.14 188.952 346.35 176.183 348.132C175.423 348.237 175.745 349.391 176.501 349.287Z" fill="white"/>
<path d="M217.515 350.301C208.006 351.17 198.171 353.527 190.258 359.107C181.227 365.475 177.151 375.431 175.596 386.084C175.488 386.836 176.637 387.162 176.75 386.401C178.285 375.874 182.276 365.986 191.331 359.815C198.995 354.589 208.392 352.328 217.515 351.496C218.274 351.427 218.283 350.228 217.515 350.297V350.301Z" fill="white"/>
<path d="M188.321 295.526C195.88 290.2 205.185 287.71 214.368 287.565C222.033 287.445 231.288 289.142 235.874 295.989C240.854 303.423 237.948 313.412 232.402 319.647C226.445 326.341 217.804 330.295 209.698 333.715C199.502 338.019 188.26 341.105 177.232 338.365C176.484 338.18 176.167 339.335 176.915 339.52C187.324 342.106 197.954 339.673 207.721 335.807C216.583 332.299 226.216 328.087 232.812 320.967C238.35 314.989 241.629 305.849 238.298 297.968C234.966 290.088 226.49 287.155 218.697 286.503C208.01 285.61 196.528 288.281 187.718 294.489C187.095 294.927 187.69 295.969 188.321 295.522V295.526Z" fill="white"/>
<path d="M135.518 377.957C170.564 376.899 178.168 355.635 176.002 340.899C174.636 331.615 155.919 264.333 155.919 264.333" stroke="white" stroke-width="5" stroke-miterlimit="10"/>
<path d="M43.377 363.697L53.3482 374.727" stroke="white" stroke-width="4" stroke-miterlimit="10"/>
<path d="M42.9229 371.428L52.8941 382.459" stroke="white" stroke-width="4" stroke-miterlimit="10"/>
<path d="M42.8909 379.751L52.8581 390.782" stroke="white" stroke-width="4" stroke-miterlimit="10"/>
<path d="M146.599 392.427L160.987 395.364" stroke="white" stroke-width="4" stroke-miterlimit="10"/>
<path d="M150.666 398.964L165.054 401.897" stroke="white" stroke-width="4" stroke-miterlimit="10"/>
<path d="M155.408 405.723L169.797 408.655" stroke="white" stroke-width="4" stroke-miterlimit="10"/>
<path d="M160.469 161.809C164.25 183.383 149.846 203.943 128.288 207.733C106.734 211.518 86.1922 197.101 82.4062 175.522" fill="#FFC200"/>
<path d="M132.942 134.768C134.047 145.637 126.142 155.344 115.282 156.451C105.681 157.428 96.9875 151.358 94.3389 142.427C93.9933 141.256 93.7481 140.038 93.6195 138.774C92.5142 127.909 100.42 118.198 111.279 117.092C116.93 116.516 122.263 118.379 126.238 121.834C129.904 125.02 132.411 129.558 132.942 134.768Z" fill="#67E5B4"/>
<path d="M126.238 121.834C122.022 132.792 111.942 141.039 99.4712 142.31C97.739 142.487 96.0269 142.52 94.3389 142.427C93.9933 141.256 93.7481 140.038 93.6195 138.774C92.5142 127.909 100.42 118.198 111.279 117.092C116.93 116.516 122.263 118.379 126.238 121.834Z" fill="black"/>
<path d="M93.4465 125.684C97.6062 125.684 100.978 122.309 100.978 118.145C100.978 113.982 97.6062 110.606 93.4465 110.606C89.2869 110.606 85.9148 113.982 85.9148 118.145C85.9148 122.309 89.2869 125.684 93.4465 125.684Z" fill="black"/>
<path d="M94.1057 111.037C105.945 111.037 115.543 101.43 115.543 89.5796C115.543 77.729 105.945 68.1221 94.1057 68.1221C82.2659 68.1221 72.668 77.729 72.668 89.5796C72.668 101.43 82.2659 111.037 94.1057 111.037Z" fill="black"/>
<path d="M129.741 138.117C130.823 138.007 131.56 136.542 131.388 134.844C131.215 133.146 130.198 131.86 129.116 131.97C128.034 132.08 127.297 133.546 127.469 135.243C127.642 136.941 128.659 138.227 129.741 138.117Z" fill="black"/>
<path d="M123.252 138.991C124.334 138.881 125.071 137.416 124.898 135.718C124.726 134.02 123.709 132.734 122.627 132.844C121.545 132.954 120.807 134.42 120.98 136.117C121.153 137.815 122.17 139.101 123.252 138.991Z" fill="black"/>
<path d="M130.096 143.078C130.096 143.078 126.781 142.624 126.664 139.615" stroke="black" stroke-width="4" stroke-miterlimit="10"/>
<path d="M112.167 198.428C112.167 198.428 175.335 185.937 186.122 176.673C201.985 163.052 217.595 123.56 217.595 123.56C217.595 123.56 239.178 105.767 237.409 103.454C235.561 101.04 221.727 109.46 221.727 109.46C221.727 109.46 238.012 94.6401 235.995 92.1983C233.322 88.9599 216.964 103.776 216.964 103.776C216.964 103.776 226.534 89.0605 224.709 88.2921C222.229 87.2502 210.22 100.896 210.22 100.896C210.22 100.896 208.279 91.9609 206.25 92.2908C203.328 92.7695 204.413 103.382 200.169 110.623C197.167 115.744 170.946 154.873 170.946 154.873L106.971 169.255" stroke="black" stroke-width="4" stroke-linejoin="bevel"/>
<path d="M239.355 126.44L215.594 158.357L205.792 157.806" stroke="black" stroke-width="4" stroke-linejoin="bevel"/>
<path d="M250.463 53.8931C250.463 53.8931 232.446 73.8863 240.363 83.4566C248.277 93.0268 269.052 82.7968 269.052 82.7968C269.052 82.7968 259.985 94.8733 262.786 100.469C265.587 106.065 280.104 103.49 280.104 103.49" stroke="white" stroke-width="3" stroke-miterlimit="10"/>
<path d="M231.815 124.055C231.815 124.055 246.36 102.573 267.681 119.754" stroke="white" stroke-width="3" stroke-miterlimit="10"/>
<path d="M212.576 75.2224C212.576 75.2224 230.939 74.6713 227.241 58.7651" stroke="white" stroke-width="3" stroke-miterlimit="10"/>
<path d="M259.804 56.3271C259.804 56.3271 247.521 77.841 273.292 65.8773" stroke="white" stroke-width="3" stroke-miterlimit="10"/>
</svg>
