<svg width="230" height="65" viewBox="0 0 230 65" fill="none" xmlns="http://www.w3.org/2000/svg">
<g clip-path="url(#clip0_11_18)">
<path d="M21.4993 0C15.8004 0.010164 10.3377 2.3461 6.3079 6.49608C2.27814 10.6461 0.00986958 16.2717 0 22.1407V42.026C0 47.8981 2.2651 53.5296 6.297 57.6818C10.3289 61.834 15.7973 64.1667 21.4993 64.1667C27.2013 64.1667 32.6697 61.834 36.7016 57.6818C40.7335 53.5296 42.9986 47.8981 42.9986 42.026V22.1407C42.9888 16.2717 40.7205 10.6461 36.6907 6.49608C32.6609 2.3461 27.1982 0.010164 21.4993 0ZM41.4584 41.9434C41.4146 47.365 39.2925 52.5492 35.5544 56.3669C31.8162 60.1847 26.7647 62.3269 21.5 62.3269C16.2353 62.3269 11.1838 60.1847 7.44564 56.3669C3.70747 52.5492 1.5854 47.365 1.54159 41.9434V22.1407C1.5854 16.7191 3.70747 11.5349 7.44564 7.71715C11.1838 3.89938 16.2353 1.75723 21.5 1.75723C26.7647 1.75723 31.8162 3.89938 35.5544 7.71715C39.2925 11.5349 41.4146 16.7191 41.4584 22.1407V41.9434Z" fill="white"/>
<path d="M21.5007 3.76026C16.7668 3.76026 12.2267 5.6969 8.87935 9.14414C5.53197 12.5914 3.65143 17.2669 3.65143 22.142V41.8593C3.65143 46.7454 5.53619 51.4314 8.8911 54.8864C12.246 58.3413 16.7962 60.2823 21.5408 60.2823C26.2853 60.2823 30.8356 58.3413 34.1905 54.8864C37.5454 51.4314 39.4302 46.7454 39.4302 41.8593V22.142C39.4119 17.2584 37.5144 12.5813 34.1537 9.13578C30.7929 5.69024 26.2429 3.75721 21.5007 3.76026ZM37.8015 41.9433C37.8015 46.3974 36.0833 50.6691 33.0251 53.8186C29.9668 56.9681 25.8188 58.7375 21.4938 58.7375C17.1687 58.7375 13.0208 56.9681 9.96251 53.8186C6.90423 50.6691 5.18611 46.3974 5.18611 41.9433V22.142C5.18611 17.6879 6.90423 13.4163 9.96251 10.2667C13.0208 7.11722 17.1687 5.34783 21.4938 5.34783C25.8188 5.34783 29.9668 7.11722 33.0251 10.2667C36.0833 13.4163 37.8015 17.6879 37.8015 22.142V41.9433Z" fill="white"/>
<path d="M27.0172 20.637L14.5228 31.743C14.1298 32.0769 13.8159 32.4988 13.6051 32.9764C13.3942 33.4541 13.292 33.975 13.3061 34.4995C13.3102 35.0211 13.4207 35.5359 13.6303 36.0108C13.8398 36.4856 14.1439 36.9099 14.5228 37.2561L27.0172 48.362C27.0812 48.4253 27.1581 48.4731 27.2423 48.502C27.3265 48.5308 27.4159 48.5399 27.5039 48.5286C27.6106 48.5317 27.7167 48.5109 27.8148 48.4676C27.9129 48.4243 28.0007 48.3596 28.0721 48.278C28.1979 48.1056 28.2588 47.8921 28.2439 47.6771C28.2289 47.462 28.1389 47.2598 27.9906 47.1076L15.4961 36.0017C15.2949 35.8092 15.1338 35.5767 15.0223 35.3183C14.9108 35.0599 14.8514 34.7808 14.8476 34.4981C14.8432 34.214 14.899 33.9323 15.0109 33.6727C15.1229 33.413 15.2885 33.1816 15.4961 32.9945L27.9906 21.8886C28.14 21.737 28.2307 21.5346 28.2457 21.3192C28.2607 21.1038 28.199 20.8902 28.0721 20.7182C27.9415 20.5655 27.7582 20.4714 27.5612 20.4557C27.3643 20.44 27.1691 20.504 27.0172 20.6342" fill="white"/>
<path d="M27.0159 15.7917L13.548 27.6566C13.3986 27.8081 13.3079 28.0105 13.2929 28.2259C13.2779 28.4413 13.3396 28.655 13.4664 28.827C13.62 28.9788 13.822 29.0679 14.0347 29.0776C14.2076 29.0582 14.3739 28.9988 14.5214 28.9039L27.9892 16.9564C28.1386 16.8049 28.2293 16.6025 28.2443 16.3871C28.2593 16.1717 28.1976 15.958 28.0708 15.786C27.9294 15.6449 27.7402 15.5659 27.5433 15.5659C27.3464 15.5659 27.1572 15.6449 27.0159 15.786" fill="white"/>
<path d="M18.4161 33.6724C18.2548 33.5284 18.0445 33.4562 17.8315 33.4718C17.6185 33.4874 17.4202 33.5896 17.2803 33.7557C17.1404 33.9219 17.0704 34.1385 17.0855 34.3578C17.1007 34.5772 17.1999 34.7813 17.3612 34.9254L27.0158 43.4471C27.0798 43.5104 27.1567 43.5582 27.2409 43.587C27.3251 43.6159 27.4145 43.625 27.5025 43.6137C27.6092 43.6168 27.7153 43.596 27.8134 43.5527C27.9115 43.5094 27.9993 43.4447 28.0708 43.3631C28.1965 43.1906 28.2575 42.9772 28.2425 42.7622C28.2275 42.5471 28.1375 42.3448 27.9892 42.1927L18.4161 33.6724Z" fill="white"/>
<path d="M21.1758 31.2491C21.0959 31.1777 21.0031 31.1233 20.9028 31.0889C20.8025 31.0545 20.6966 31.0407 20.5911 31.0485C20.4857 31.0562 20.3827 31.0853 20.2881 31.134C20.1936 31.1827 20.1092 31.2501 20.04 31.3324C19.9707 31.4146 19.9178 31.5102 19.8844 31.6135C19.851 31.7168 19.8377 31.8259 19.8452 31.9345C19.8527 32.0431 19.8809 32.1491 19.9282 32.2465C19.9755 32.3439 20.041 32.4307 20.1209 32.5021L26.9357 38.6018C26.9996 38.6651 27.0765 38.7129 27.1607 38.7417C27.2449 38.7706 27.3343 38.7797 27.4223 38.7684C27.529 38.7715 27.6351 38.7507 27.7332 38.7074C27.8313 38.6641 27.9191 38.5994 27.9906 38.5178C28.1139 38.3454 28.173 38.1332 28.1573 37.9198C28.1416 37.7063 28.052 37.5057 27.9048 37.3545L21.1758 31.2491Z" fill="white"/>
</g>
<g clip-path="url(#clip1_11_18)">
<path d="M98.7837 41.1407L89.0123 29.2283L94.9244 23.3534C99.44 18.9469 100.102 18.5395 102.807 18.2086V17.3145H95.827V20.2526L84.1679 31.6756L93.6105 43.2626C94.3919 44.1995 95.3701 44.9551 96.4765 45.4766C97.5828 45.9981 98.7906 46.2728 100.015 46.2814H104.531V45.308C102.232 44.9813 101.247 43.9175 98.7823 41.1463" fill="white"/>
<path d="M82.5251 40.1618C82.5251 44.2415 82.6077 44.813 86.467 45.3066V46.2035H73V45.3066C76.8593 44.8172 76.9419 44.3333 76.9419 40.1618V23.1073C76.9419 19.0276 76.8593 18.7008 73 18.2113V17.3145H86.467V18.2113C82.6077 18.7008 82.5251 19.0276 82.5251 23.1073V40.1618Z" fill="white"/>
<path d="M125.224 34.1228C125.447 36.243 125.037 38.3815 124.045 40.2718C123.054 42.1622 121.524 43.7209 119.648 44.7537C117.771 45.7864 115.63 46.2477 113.491 46.08C111.353 45.9123 109.311 45.123 107.621 43.8104C105.93 42.4979 104.666 40.7201 103.985 38.6986C103.304 36.6771 103.237 34.5012 103.792 32.442C104.347 30.3828 105.499 28.5313 107.105 27.1181C108.711 25.705 110.7 24.7927 112.824 24.495C114.277 24.3041 115.753 24.4028 117.167 24.7854C118.58 25.1679 119.903 25.8267 121.057 26.7231C122.212 27.6195 123.175 28.7356 123.89 30.0061C124.606 31.2767 125.059 32.6762 125.224 34.1228ZM108.719 34.857C109.211 38.692 111.593 45.7029 116.275 45.1384C119.806 44.6489 120.791 40.7319 120.134 36.1627C119.642 32.4083 117.26 25.3918 112.662 25.9633C109.049 26.4528 108.064 30.2058 108.72 34.8626" fill="white"/>
<path d="M126.128 27.4319L134.339 24.4131V28.0034C135.899 25.9635 137.542 24.4131 140.743 24.4131C144.193 24.4131 146.819 26.6977 146.819 32.0011V40.3232C146.819 44.4029 146.819 44.9744 150.022 45.3819V46.2787H138.937V45.3054C141.736 44.9786 141.736 44.4085 141.736 40.2467V32.8951C141.736 29.4652 140.504 27.7503 138.04 27.7503C137.338 27.7086 136.635 27.8351 135.992 28.1192C135.349 28.4033 134.784 28.8366 134.344 29.3827V40.2287C134.344 44.3084 134.344 44.8799 137.143 45.2873V46.1842H126.045V45.2873C129.248 44.9605 129.248 44.3904 129.248 40.2287V32.1651C129.248 28.4928 129.002 28.4108 126.045 28.3301V27.4333L126.128 27.4319Z" fill="white"/>
<path d="M151.254 27.4319L159.465 24.4131V28.0034C161.025 25.9635 162.668 24.4131 165.87 24.4131C169.319 24.4131 171.945 26.6977 171.945 32.0011V40.3232C171.945 44.4029 171.945 44.9744 175.148 45.3819V46.2787H164.063V45.3054C166.862 44.9786 166.862 44.4085 166.862 40.2467V32.8951C166.862 29.4652 165.63 27.7503 163.166 27.7503C162.464 27.7086 161.761 27.8351 161.118 28.1192C160.475 28.4033 159.91 28.8366 159.47 29.3827V40.2287C159.47 44.3084 159.47 44.8799 162.269 45.2873V46.1842H151.171V45.2873C154.374 44.9605 154.374 44.3904 154.374 40.2287V32.1651C154.374 28.4928 154.128 28.4108 151.171 28.3301V27.4333L151.254 27.4319Z" fill="white"/>
<path d="M175.395 36.0001C175.395 29.7178 179.993 24.4131 185.495 24.4131C190.339 24.4131 193.87 27.4319 194.199 33.062H179.829V33.3888C179.829 39.8351 183.36 42.936 187.63 42.936C188.746 42.982 189.859 42.8034 190.903 42.4107C191.947 42.0181 192.901 41.4197 193.706 40.6514L194.199 41.0588C193.343 42.7489 192.045 44.1788 190.441 45.1981C188.837 46.2175 186.986 46.7886 185.084 46.8516C178.843 46.6889 175.395 42.2004 175.395 36.0057M179.91 31.4365H189.108C188.944 27.6015 187.219 25.9691 184.839 25.9691C181.964 25.9691 180.404 28.091 179.912 31.4365" fill="white"/>
<path d="M213.743 28.3301C213.741 28.672 213.667 29.0097 213.527 29.322C213.387 29.6342 213.183 29.9142 212.928 30.1442C212.674 30.3742 212.374 30.5492 212.048 30.6582C211.722 30.7671 211.376 30.8077 211.034 30.7773C210.668 30.8223 210.297 30.7526 209.974 30.5781C209.65 30.4036 209.389 30.133 209.227 29.804L207.419 26.7769C207.326 26.5352 207.155 26.3314 206.931 26.1983C206.708 26.0652 206.446 26.0104 206.188 26.0427C203.314 26.0427 200.686 28.49 200.686 33.7947C200.686 39.5876 204.053 42.8525 208.322 42.8525C210.291 42.7835 212.188 42.0983 213.741 40.8946L214.234 41.302C212.756 43.5866 210.375 46.7695 206.105 46.7695C199.701 46.7695 196.251 42.1183 196.251 35.9987C196.2 34.5045 196.451 33.0152 196.988 31.6186C197.525 30.222 198.337 28.9463 199.378 27.8665C200.419 26.7868 201.666 25.9249 203.047 25.3315C204.428 24.7382 205.915 24.4254 207.419 24.4116C210.869 24.4116 213.741 26.1247 213.741 28.3287" fill="white"/>
<path d="M218.668 40.2425V26.5349H215.219V24.7398H218.75V21.6403L223.759 17.886V24.7398H229.015V26.5349H223.755V39.4276C223.755 42.5285 223.919 43.8341 226.3 43.8341C227.503 43.8083 228.661 43.3768 229.584 42.6105L229.994 42.9373C228.517 44.7324 227.12 46.6916 223.919 46.6916C220.552 46.6916 218.663 45.0592 218.663 40.2453" fill="white"/>
</g>
<defs>
<clipPath id="clip0_11_18">
<rect width="43" height="64.1667" fill="white"/>
</clipPath>
<clipPath id="clip1_11_18">
<rect width="157" height="29.537" fill="white" transform="translate(73 17.3145)"/>
</clipPath>
</defs>
</svg>
